<svg xmlns:xlink="http://www.w3.org/1999/xlink" xmlns="http://www.w3.org/2000/svg" viewBox="0 0 335 76.31357698595912" preserveAspectRatio="xMidYMid meet" class="css-88gl6m" id="hdcfaged" width="335"  height="76.31357698595912" ><defs id="SvgjsDefs7788"></defs><g id="SvgjsG7789" featurekey="5TMTKC-0" transform="matrix(0.7897681507727736,0,0,0.7897681507727736,-6.9478758239459095,-1.3426058939727952)" fill="#111111"><g xmlns="http://www.w3.org/2000/svg" fill="#111111"><path d="M13.5,65.8h3.6v0.1v6.2v7.3c0,4.3,3.5,7.7,7.7,7.7l10.7-1.6v10.7v0.1c0,1.3,1.2,2.2,2.6,2l38.4-6.8   c1.4-0.3,2.6-1.6,2.6-3.2v-1.7v-1.3V65.8c7.3-6.7,12-16.4,12-27.2C91.1,18.2,74.6,1.7,54.3,1.7c-5.6,0-11,1.2-15.8,3.6   c-12.6,5.9-21.4,18.6-21.4,33.4v4.9v1.2L9.6,59.1C7.6,62.8,9.5,65.8,13.5,65.8z M54.3,13.6c13.7,0,24.7,11,24.7,24.7   c0,13.7-11,24.7-24.7,24.7c-13.7,0-24.7-11-24.7-24.7C29.6,24.7,40.7,13.6,54.3,13.6z M54.3,55.7c9.6,0,17.4-7.8,17.4-17.4   S63.9,21,54.3,21S37,28.7,37,38.3S44.7,55.7,54.3,55.7z M44.9,36H52v-7.1h4.7V36h7.1v4.7h-7.1v7.1H52v-7.1h-7.1V36z" fill="#111111"></path></g></g><g id="SvgjsG7790" featurekey="7UBp9i-0" transform="matrix(4.570777834991545,0,0,4.570777834991545,80.46985053606696,-18.9327244740059)" fill="#111111"><path d="M1.08 19.18 l0 0.28 c0 0.1 -0.02 0.2 -0.02 0.28 c0 0.36 0.02 0.36 0.34 0.36 l0.78 0 c0.12 0 0.24 0.02 0.36 0.06 c0.18 0.04 0.38 0.08 0.56 -0.02 c0.16 -0.08 0.36 -0.06 0.52 -0.02 c0.38 0.12 0.76 0.06 1.14 0.06 c0.14 -0.12 0.34 -0.1 0.5 -0.08 c0.18 0 0.32 -0.08 0.5 -0.02 c0.18 0.04 0.4 0.02 0.58 0.02 c0.12 0 0.24 0.02 0.34 -0.04 c0.14 -0.06 0.28 -0.06 0.42 -0.06 c0.2 0.02 0.4 -0.08 0.6 -0.12 c0.12 -0.02 0.24 -0.14 0.36 -0.2 c0.22 -0.12 0.4 -0.26 0.52 -0.48 c0.02 -0.06 0.06 -0.1 0.12 -0.14 c0.14 -0.14 0.22 -0.3 0.3 -0.48 c0.12 -0.3 0.28 -0.58 0.22 -0.9 c0 -0.04 0 -0.08 0.02 -0.1 c0.1 -0.12 0.08 -0.28 0.08 -0.42 c0 -0.06 0 -0.14 0.02 -0.18 c0.1 -0.14 0.08 -0.28 0.08 -0.42 c0 -0.1 -0.02 -0.2 0.02 -0.28 c0.12 -0.3 0.06 -0.6 0.08 -0.9 l0 -0.78 l0 -0.62 c0 -0.08 0.12 -0.16 0.02 -0.26 l0 -1.04 c0 -0.06 0.06 -0.14 0.04 -0.18 c-0.12 -0.32 -0.04 -0.64 -0.06 -0.94 c0 -0.08 -0.02 -0.18 0.02 -0.24 c0.12 -0.22 0.08 -0.44 0.04 -0.66 c-0.02 -0.12 0 -0.26 -0.04 -0.4 c-0.06 -0.14 -0.02 -0.32 -0.04 -0.48 c0 -0.14 -0.06 -0.28 -0.08 -0.4 c0 -0.22 -0.02 -0.42 -0.08 -0.62 c-0.06 -0.18 0 -0.38 -0.1 -0.56 c0.02 -0.2 -0.08 -0.4 -0.1 -0.6 c-0.04 -0.14 -0.1 -0.28 -0.1 -0.42 c0 -0.12 -0.06 -0.24 -0.1 -0.36 c-0.16 -0.3 -0.38 -0.58 -0.64 -0.82 c-0.1 -0.12 -0.24 -0.22 -0.38 -0.28 c-0.1 -0.04 -0.2 -0.12 -0.3 -0.06 c-0.06 0.02 -0.08 0.12 -0.14 0.18 c-0.06 0.08 -0.12 0.16 -0.2 0.22 c-0.02 0.02 -0.08 0.02 -0.12 0.02 s-0.1 -0.06 -0.1 -0.06 l0.12 -0.26 c0.02 -0.08 0.02 -0.16 0.02 -0.24 c0 -0.02 -0.02 -0.06 -0.04 -0.08 c-0.12 -0.02 -0.28 -0.1 -0.4 -0.08 c-0.16 0.04 -0.3 0.04 -0.46 -0.02 c-0.14 -0.04 -0.32 0 -0.46 -0.06 c-0.14 -0.04 -0.28 -0.06 -0.42 -0.06 l-0.86 0 c-0.08 0 -0.14 -0.02 -0.2 0 c-0.26 0.12 -0.52 0.08 -0.8 0.1 c-0.08 0 -0.16 0.08 -0.22 0.06 c-0.08 -0.02 -0.14 -0.14 -0.22 -0.14 c-0.12 -0.02 -0.2 -0.12 -0.32 -0.06 c-0.18 0.06 -0.38 0.04 -0.56 0.04 l-0.72 0 c-0.18 -0.02 -0.32 0.06 -0.44 0.16 c-0.08 0.04 -0.12 0.12 -0.06 0.2 c0.02 0.06 0.06 0.14 0.04 0.18 c-0.08 0.14 0.02 0.28 0.02 0.4 l0 0.44 l0 0.38 c0 0.08 0 0.16 0.04 0.24 c0.06 0.1 0.04 0.2 0.04 0.32 l0 0.48 l0 0.48 c-0.14 0.14 0.02 0.3 0 0.44 c0 0.06 0 0.14 -0.02 0.18 c-0.1 0.2 -0.04 0.42 -0.06 0.62 c0.14 0.2 0.08 0.44 0.1 0.66 c0 0.96 0 1.92 -0.02 2.88 c0 0.52 0.1 1.04 -0.08 1.56 c-0.02 0.1 0.06 0.16 0.04 0.26 c-0.08 0.32 -0.06 0.64 0 0.96 c0 0.04 0 0.08 -0.02 0.12 c0 0.14 -0.02 0.26 -0.02 0.38 c0 0.14 -0.02 0.3 0 0.44 c0.04 0.12 0.04 0.24 0.02 0.36 c0.12 0.24 0.06 0.48 0.02 0.74 c-0.02 0.18 -0.06 0.36 -0.04 0.54 s0 0.36 0 0.54 z M5.28 5.359999999999999 c-0.02 0.02 -0.02 0.02 -0.04 0.02 l-0.02 -0.02 l0.02 -0.02 c0.02 0 0.02 0.02 0.04 0.02 z M2.56 5.42 c0.1 -0.02 0.22 0.08 0.22 0.18 c0 0.04 -0.02 0.08 -0.04 0.08 c-0.08 0.04 -0.22 -0.08 -0.22 -0.18 c0 -0.02 0.02 -0.04 0.04 -0.08 z M2.4 5.66 c-0.04 0.02 -0.08 0.04 -0.12 0.04 s-0.08 -0.04 -0.12 -0.06 l0.02 -0.02 l0.18 0 z M1.34 5.699999999999999 c0.04 0.02 0.06 0.02 0.08 0.04 l-0.04 0.04 c-0.04 0 -0.06 -0.02 -0.08 -0.02 c0.02 -0.02 0.04 -0.04 0.04 -0.06 z M2.02 5.9 c0.04 -0.04 0.06 -0.06 0.06 -0.08 c0.04 0.04 0.08 0.08 0.1 0.12 l-0.06 0.04 c-0.04 -0.02 -0.06 -0.06 -0.1 -0.08 z M1.74 6.18 c-0.08 0.16 -0.2 0.1 -0.32 0.08 c-0.04 0 -0.04 -0.04 0 -0.06 c0.1 -0.04 0.14 -0.1 0.14 -0.2 c0 -0.06 0.02 -0.1 0.08 -0.1 c0.1 0 0.1 0.08 0.1 0.14 l0 0.04 l0.1 0 l0.06 0.06 c-0.02 0 -0.04 0.02 -0.06 0.04 l-0.1 0 z M5.44 5.960000000000001 c-0.04 -0.02 -0.04 -0.04 0 -0.04 c0 -0.02 0.02 0 0.02 0.02 z M2.66 6 c0 0.02 0.02 0.04 0.02 0.04 c-0.02 0.02 -0.04 0.02 -0.04 -0.02 c-0.02 0 0 0 0.02 -0.02 z M3.92 6.039999999999999 c-0.02 0 -0.04 0.04 -0.08 0.04 c-0.02 0 -0.04 -0.04 -0.06 -0.04 c0.02 -0.02 0.04 -0.04 0.08 -0.04 c0.02 0 0.04 0.02 0.06 0.04 z M1.68 6.119999999999999 l0.06 0.06 l0 -0.1 z M1.9 6.380000000000001 c0.04 0.04 0.06 0.08 0.1 0.14 c0 0 0 0.02 -0.02 0.02 s-0.08 0.02 -0.08 0 c-0.02 -0.02 -0.04 -0.06 -0.04 -0.1 c-0.02 -0.02 0 -0.02 0.04 -0.06 z M6.82 6.52 c-0.02 0 -0.04 0.02 -0.04 0.02 c-0.04 -0.02 -0.04 -0.04 0 -0.06 c0.02 0 0.02 0.02 0.04 0.04 z M1.92 6.699999999999999 c-0.02 0.02 -0.02 0.04 -0.04 0.04 c-0.04 -0.02 -0.02 -0.04 0.02 -0.06 c0 0 0 0.02 0.02 0.02 z M1.28 6.9399999999999995 c-0.06 0 -0.1 -0.02 -0.1 -0.08 s0.02 -0.1 0.08 -0.08 c0.02 0 0.06 0.02 0.12 0.06 z M1.5 7.119999999999999 c-0.02 -0.02 -0.02 -0.02 -0.02 -0.04 l0.02 -0.02 c0.02 0.02 0.02 0.02 0.02 0.04 c0 0 -0.02 0 -0.02 0.02 z M2.64 7.380000000000001 c0.02 -0.02 0.04 -0.04 0.06 -0.04 s0.06 0.02 0.08 0.04 c-0.04 0.02 -0.06 0.02 -0.08 0.04 z M6.34 10.6 c0 0.3 0.02 0.6 0 0.9 c0 0.14 0.02 0.26 -0.04 0.38 c-0.04 0.06 -0.06 0.16 -0.02 0.22 c0.08 0.22 0.06 0.4 0 0.6 c-0.04 0.2 -0.06 0.42 0.04 0.62 c0.04 0.08 0.02 0.18 0.02 0.28 c0.02 0.5 0 1.02 0.02 1.52 c0 0.18 -0.08 0.32 -0.02 0.5 c0.06 0.16 0.02 0.36 0 0.54 c-0.02 0.28 -0.1 0.8 -0.26 1.04 c-0.1 0.16 -0.22 0.3 -0.4 0.4 c-0.12 0.08 -0.28 0.16 -0.44 0.02 c-0.16 0.02 -0.28 -0.1 -0.44 -0.1 c-0.32 0 -0.48 -0.2 -0.58 -0.48 c-0.1 -0.26 -0.08 -0.54 -0.06 -0.8 c0.08 -0.12 0.04 -0.22 0 -0.36 c-0.02 -0.06 0.04 -0.14 0.06 -0.22 c0 -0.06 -0.04 -0.1 -0.04 -0.18 c0.08 -0.4 0.06 -0.62 0 -0.98 c-0.02 -0.04 -0.02 -0.1 0 -0.14 c0.06 -0.12 0.06 -0.22 0 -0.36 c-0.04 -0.04 -0.04 -0.12 -0.02 -0.18 c0.1 -0.3 0.1 -0.58 0 -0.88 c-0.02 -0.02 -0.02 -0.06 0 -0.08 c0.12 -0.18 0.08 -0.38 0.08 -0.56 c0 -0.94 0 -1.86 -0.02 -2.78 c0 -0.14 0.04 -0.3 -0.06 -0.42 c-0.02 -0.04 -0.02 -0.1 0 -0.14 c0.1 -0.18 0.04 -0.38 0.08 -0.56 c0.02 -0.16 0.04 -0.32 0.12 -0.46 c0.12 -0.2 0.3 -0.38 0.58 -0.32 l0.2 0 c0.12 -0.02 0.24 0.02 0.34 0.12 c0.06 0.1 0.14 0.18 0.28 0.18 c0.02 0 0.06 0 0.08 0.02 c0.1 0.22 0.3 0.38 0.32 0.62 c0.14 0.92 0.22 0.72 0.2 1.84 c-0.02 0.06 0 0.12 0 0.2 l-0.02 0 z M1.4 11.3 c0.02 0.02 0.04 0.04 0.04 0.06 s-0.02 0.04 -0.04 0.06 c0 -0.02 -0.04 -0.04 -0.04 -0.06 s0.04 -0.04 0.04 -0.06 z M6.86 19.72 c-0.08 0.04 -0.12 0.08 -0.14 0.06 c-0.04 0 -0.06 -0.06 -0.06 -0.08 c-0.02 -0.06 0.04 -0.1 0.08 -0.08 s0.06 0.06 0.12 0.1 z M16.8 14.1 l0 0.54 c0 0.28 0.04 0.58 0 0.86 s-0.18 0.54 -0.26 0.8 l0 0.06 c-0.04 0.06 -0.08 0.14 -0.14 0.18 c-0.18 0.14 -0.38 0.26 -0.58 0.4 c-0.04 0.02 -0.08 0.02 -0.1 0 c-0.12 -0.06 -0.26 0 -0.4 -0.08 c-0.12 -0.08 -0.14 -0.2 -0.2 -0.3 c-0.04 -0.08 -0.24 -1.02 -0.24 -1.1 c0 -0.14 0.02 -0.26 -0.06 -0.38 l0 -0.76 c0.1 -0.18 0.06 -0.38 0.06 -0.56 c0 -0.2 0.06 -0.42 -0.08 -0.6 c0 -0.04 0.02 -0.1 0.04 -0.14 c0.04 -0.06 0.04 -0.12 0 -0.18 c-0.06 -0.08 -0.04 -0.18 -0.04 -0.28 l0 -1.72 c0 -0.16 -0.02 -0.32 0.06 -0.46 c0.04 -0.1 0.04 -0.24 0.02 -0.34 c-0.02 -0.08 -0.04 -0.16 -0.02 -0.26 c0.04 -0.1 0.02 -0.22 -0.02 -0.32 c-0.04 -0.12 0.08 -0.24 0 -0.36 c-0.02 -0.06 0 -0.14 0 -0.22 l-0.08 -0.26 c-0.04 -0.1 -0.04 -0.22 -0.04 -0.32 c0.02 -0.08 0 -0.18 0.02 -0.26 c0.16 -0.3 0.14 -0.64 0.14 -0.98 l0 -1.44 l0 -0.24 c0 -0.06 -0.02 -0.12 -0.1 -0.12 c-0.06 0 -0.14 0 -0.2 -0.02 c-0.28 -0.14 -0.58 -0.08 -0.88 -0.02 c-0.28 0.06 -0.56 0.1 -0.84 -0.02 c-0.12 -0.06 -0.24 -0.06 -0.32 -0.02 c-0.2 0.06 -0.38 0.06 -0.56 0.08 c-0.26 0.02 -0.34 0.12 -0.34 0.36 c0 0.12 -0.04 0.24 0.02 0.34 c0.08 0.14 0.06 0.3 0.06 0.46 s0.04 0.34 -0.06 0.52 c-0.06 0.08 -0.06 0.26 0 0.36 c0.08 0.14 0.04 0.32 0.12 0.46 c0.04 0.08 0.06 0.2 0.02 0.28 c-0.06 0.14 -0.04 0.3 -0.08 0.46 c-0.16 0.46 -0.08 0.92 -0.08 1.38 c0 0.06 0.06 0.02 0.1 0.02 c0.1 0 0.24 0.12 0.24 0.18 c0 0.02 -0.04 0.06 -0.06 0.06 c-0.28 0.06 -0.28 0.04 -0.28 0.3 l0 1.1 c-0.02 0.1 -0.02 0.2 0 0.28 c0.04 0.18 0.14 0.36 0 0.54 c-0.02 0.04 0.02 0.12 0.04 0.18 c0.04 0.1 0.06 0.18 0 0.28 c-0.08 0.18 -0.08 0.38 -0.02 0.56 c0.08 0.18 0.08 0.36 0 0.54 c-0.02 0.08 -0.02 0.16 -0.04 0.24 c-0.02 0.24 0.1 0.46 0.02 0.7 c0.12 0.2 0.08 0.44 0.08 0.66 l0 0.96 c0 0.16 0 0.34 0.02 0.52 c0 0.12 0.04 0.24 0.08 0.36 c0.08 0.32 0.18 0.62 0.36 0.88 c0.1 0.12 0.2 0.26 0.28 0.38 c0.1 0.16 0.2 0.32 0.32 0.48 c0.12 0.18 0.34 0.2 0.5 0.34 c0.2 0.14 0.44 0.18 0.64 0.3 c0.2 -0.04 0.4 0.16 0.6 0.02 c0.06 -0.04 0.14 0 0.18 0.08 s0.1 0.14 0.14 0.2 c0.06 0.04 0.12 0.08 0.18 0.08 c0.34 0 0.66 0.02 1 0 c0.16 -0.02 0.3 -0.12 0.46 -0.08 c0.18 0.02 0.34 -0.1 0.52 -0.1 c0.38 0 0.68 -0.24 1.02 -0.32 c0.2 -0.16 0.42 -0.32 0.6 -0.48 c0.2 -0.18 0.4 -0.38 0.56 -0.58 c0.16 -0.18 0.34 -0.36 0.32 -0.62 c0.1 -0.16 0.06 -0.36 0.22 -0.48 c0.02 -0.02 0.06 -0.08 0.06 -0.12 c-0.02 -0.28 0.1 -0.52 0.1 -0.8 c-0.02 -1.04 0 -2.08 0 -3.12 c0 -0.14 0 -0.28 0.02 -0.42 c0.02 -0.1 0.06 -0.16 0.04 -0.28 c-0.04 -0.08 0.02 -0.18 0.04 -0.26 c0 -0.18 0.04 -0.38 -0.04 -0.52 c-0.06 -0.2 -0.06 -0.38 -0.06 -0.56 c-0.02 -0.14 0 -0.26 -0.04 -0.38 s0.02 -0.24 0.04 -0.36 l0 -0.06 c0 -0.08 -0.06 -0.12 -0.14 -0.16 c-0.06 -0.04 -0.06 -0.12 0 -0.16 c0.1 -0.04 0.14 -0.08 0.14 -0.18 l0 -1.14 c0 -0.16 -0.02 -0.32 0.08 -0.46 c0 -0.26 0.06 -0.52 -0.04 -0.76 c-0.06 -0.12 -0.08 -0.28 -0.1 -0.42 c0.14 -0.18 0 -0.44 0.12 -0.64 c0.06 -0.1 -0.04 -0.18 -0.06 -0.26 s-0.08 -0.08 -0.14 -0.1 c-0.06 0 -0.1 -0.02 -0.14 -0.04 c-0.08 -0.04 -0.08 -0.14 0 -0.18 c0.22 -0.14 0.3 -0.36 0.36 -0.58 c0.08 -0.22 -0.08 -0.36 -0.32 -0.32 c0 0 -0.02 0 -0.04 0.02 c-0.08 0.06 -0.08 -0.04 -0.12 -0.08 c-0.02 -0.02 -0.08 -0.02 -0.12 -0.02 c-0.02 0 -0.04 0.04 -0.04 0.06 c0 0.06 0 0.12 0.02 0.14 c0.04 0.06 0.12 0.1 0.18 0.16 c0.08 0.06 0.1 0.16 0.04 0.24 c-0.04 0.04 -0.08 0.08 -0.14 0.12 s-0.18 -0.02 -0.2 -0.08 c-0.02 -0.14 -0.1 -0.26 -0.16 -0.4 c-0.02 -0.06 -0.06 -0.12 -0.1 -0.16 c-0.06 -0.04 -0.12 0.04 -0.16 0.04 c-0.16 0.02 -0.32 0.02 -0.48 0.02 c-0.16 -0.12 -0.34 -0.08 -0.52 -0.08 l-0.66 0 c-0.4 0 -0.54 0.18 -0.5 0.56 c0 0.08 0 0.14 0.02 0.2 c0.06 0.08 0.06 0.18 0.06 0.28 l0 0.42 c0 0.08 0.06 0.16 0.06 0.22 c-0.02 0.1 -0.04 0.2 -0.08 0.28 c-0.1 0.18 -0.12 0.38 -0.06 0.56 c0.08 0.2 0.06 0.4 0.08 0.6 l0 0.48 l0 0.48 l0 0.48 l0 0.54 c0 0.16 -0.02 0.32 0.02 0.46 c0.06 0.18 -0.06 0.32 -0.02 0.46 c0.02 0.1 0 0.2 0.04 0.28 c0.08 0.18 0.06 0.34 0 0.52 c-0.06 0.2 -0.08 0.42 -0.02 0.6 c0.06 0.16 0.06 0.32 0.06 0.48 c0.02 0.34 0 0.7 0 1.04 z M17 5.4399999999999995 c-0.02 -0.02 -0.04 -0.04 -0.06 -0.04 c0.02 -0.02 0.04 -0.04 0.06 -0.04 c0.04 0 0.06 0.02 0.08 0.04 c-0.02 0 -0.06 0.02 -0.08 0.04 z M18.68 5.42 l-0.02 -0.02 c0 -0.02 0.02 -0.02 0.02 -0.04 c0.02 0.02 0.02 0.02 0.02 0.04 z M14.46 5.619999999999999 c-0.02 0 -0.02 -0.02 -0.02 -0.04 l0.02 -0.02 c0.02 0 0.02 0.02 0.02 0.04 z M17.28 5.720000000000001 c0.02 0.06 -0.02 0.08 -0.08 0.1 c-0.06 0 -0.08 -0.04 -0.08 -0.08 s0.04 -0.06 0.06 -0.12 z M18.520000000000003 5.68 c-0.02 0.04 -0.04 0.04 -0.06 0 c0 0 0.02 -0.02 0.04 -0.02 z M18.200000000000003 5.880000000000001 c-0.02 -0.02 -0.04 -0.04 -0.04 -0.06 l0.06 -0.06 c0 0.04 0.02 0.06 0.02 0.08 z M19.3 6.300000000000001 c-0.06 0 -0.08 -0.04 -0.08 -0.1 c0.02 -0.06 0.04 -0.08 0.1 -0.06 c0.04 0 0.06 0.04 0.1 0.08 z M14.56 6.140000000000001 c0.02 0.02 0.04 0.06 0.04 0.08 s-0.04 0.04 -0.06 0.04 c0 -0.02 -0.02 -0.04 -0.02 -0.06 s0.02 -0.04 0.04 -0.06 z M13.040000000000001 6.26 c-0.02 0.02 -0.04 0.04 -0.08 0.04 c-0.02 0 -0.04 -0.04 -0.06 -0.04 c0.02 -0.02 0.04 -0.04 0.08 -0.04 c0.02 0 0.04 0.02 0.06 0.04 z M19 6.26 c-0.04 0.02 -0.06 0.04 -0.08 0.04 s-0.04 -0.04 -0.06 -0.06 l0.08 -0.02 c0.02 0 0.04 0.02 0.06 0.04 z M12.48 6.4 c0 0.02 -0.02 0.06 -0.04 0.08 c-0.02 -0.02 -0.04 -0.06 -0.04 -0.08 s0.04 -0.04 0.04 -0.08 c0.02 0.04 0.04 0.06 0.04 0.08 z M13.98 6.34 c0.02 0.02 0.04 0.04 0.04 0.06 s-0.02 0.04 -0.04 0.08 c-0.02 -0.04 -0.04 -0.06 -0.04 -0.08 s0.02 -0.04 0.04 -0.06 z M14.100000000000001 6.640000000000001 c0 0.02 -0.02 0.02 -0.02 0.02 c-0.02 0 -0.02 0 -0.04 -0.02 c0.02 0 0.02 -0.02 0.04 -0.02 z M17.92 6.66 c-0.02 0 -0.04 -0.02 -0.02 -0.02 c0 0 0 -0.02 0.02 -0.02 l0.02 0.02 c0 0.02 -0.02 0.02 -0.02 0.02 z M12.760000000000002 6.74 c0 0.02 -0.02 0.02 -0.02 0.02 c-0.02 0 -0.04 -0.02 -0.04 -0.02 c0 -0.02 0.02 -0.02 0.04 -0.02 z M12.920000000000002 6.9 c0.02 0.02 0.02 0.02 0.02 0.04 c-0.02 0.02 -0.02 0.02 -0.04 -0.02 c0 0 0.02 0 0.02 -0.02 z M14.56 6.9 c0 0.02 0.02 0.02 0.02 0.04 c-0.02 0.02 -0.04 0.02 -0.04 -0.02 z M14.3 7.140000000000001 c-0.04 0.04 -0.1 0.06 -0.14 0.1 c0 -0.04 -0.02 -0.06 -0.02 -0.08 c0 -0.06 0.04 -0.08 0.08 -0.08 c0.02 0.02 0.04 0.04 0.08 0.06 z M14.760000000000002 7.220000000000001 c0 0.02 -0.02 0.04 -0.04 0.04 c-0.08 0 -0.14 -0.04 -0.18 -0.12 l0 -0.02 c0 -0.02 0.02 -0.04 0.04 -0.04 c0.08 0 0.2 0.08 0.18 0.14 z M19.28 7.140000000000001 c-0.04 0 -0.06 0.02 -0.08 0.02 s-0.04 -0.04 -0.04 -0.04 c0.02 -0.02 0.04 -0.04 0.06 -0.04 s0.04 0.04 0.06 0.06 z M17.46 7.119999999999999 c0 0.02 -0.02 0.02 -0.02 0.02 c-0.04 -0.02 -0.04 -0.04 0 -0.04 z M17.94 7.220000000000001 c-0.02 0.04 -0.04 0.04 -0.04 0 c0 -0.02 0 -0.02 0.02 -0.02 z M12.88 7.460000000000001 c0.02 -0.02 0.02 -0.04 0.04 -0.08 c0.06 0.08 -0.02 0.06 -0.04 0.08 c0 0.02 0 0.06 -0.02 0.08 c0 0.06 -0.02 0.1 -0.08 0.1 s-0.08 -0.04 -0.08 -0.1 s0.04 -0.08 0.08 -0.08 l0.1 0 z M11.920000000000002 7.48 c0.02 0 0.04 0.02 0.06 0.02 c-0.02 0.04 -0.02 0.06 -0.04 0.08 s-0.06 0.04 -0.08 0.04 l-0.02 -0.02 c0 -0.04 0.02 -0.08 0.04 -0.12 l0.04 0 z M14.580000000000002 7.5 c0 0.02 -0.02 0.04 -0.02 0.04 c-0.04 -0.02 -0.04 -0.04 0 -0.06 z M13.240000000000002 7.6 c0 0.02 -0.02 0.04 -0.02 0.04 c-0.06 -0.02 -0.04 -0.06 0 -0.06 z M12.260000000000002 7.92 c-0.04 -0.02 -0.04 -0.04 0 -0.06 c0 0 0.02 0.02 0.02 0.04 z M18.520000000000003 8.38 c-0.02 0 -0.02 0.02 -0.02 0.02 c-0.04 -0.02 -0.04 -0.04 0 -0.06 c0 0 0.02 0.02 0.02 0.04 z M12.9 8.6 c-0.06 0.04 -0.08 0.08 -0.12 0.1 c-0.04 0 -0.08 -0.02 -0.08 -0.08 c-0.02 -0.06 0.02 -0.1 0.08 -0.08 c0.02 0 0.06 0.02 0.12 0.06 z M18.98 8.64 l0 0.04 l-0.04 -0.02 z M19.580000000000002 10.06 c-0.1 0 -0.16 -0.04 -0.16 -0.12 c0 -0.02 0.02 -0.06 0.04 -0.06 c0.06 -0.02 0.12 0 0.16 0.04 c0.02 0.04 0.04 0.06 0.04 0.08 c-0.02 0.02 -0.04 0.04 -0.08 0.06 z M11.88 10.26 c0 0.02 0.02 0.02 0.02 0.04 c-0.02 0.02 -0.04 0.02 -0.06 -0.02 c0 0 0.02 0 0.04 -0.02 z M12.180000000000001 10.52 c-0.02 -0.02 -0.02 -0.04 -0.04 -0.04 c0.02 -0.02 0.04 -0.04 0.08 -0.04 c0.02 0 0.02 0.04 0.04 0.06 c-0.02 0 -0.04 0.02 -0.08 0.02 z M18.62 10.62 c0 0.02 -0.02 0.06 -0.04 0.08 l-0.02 -0.08 c0 -0.02 0.02 -0.04 0.04 -0.06 c0 0.02 0.02 0.04 0.02 0.06 z M17.04 10.7 c0 0 0 -0.02 -0.02 -0.02 c0.02 -0.02 0.02 -0.04 0.04 -0.02 l0.02 0.02 c-0.02 0 -0.02 0.02 -0.04 0.02 z M11.72 10.9 c0 -0.02 0 -0.08 0.02 -0.12 l0.02 -0.02 c0.02 -0.02 0.04 0 0.04 0.02 c0.04 0.06 0.08 0.12 0.1 0.2 c0.02 0.04 -0.02 0.08 -0.04 0.12 l-0.04 0 c-0.04 -0.04 -0.08 -0.06 -0.1 -0.1 l0 -0.1 z M18.520000000000003 10.86 c0 0.02 -0.02 0.04 -0.02 0.04 c-0.02 0 -0.02 -0.02 -0.04 -0.04 c0.02 0 0.02 -0.02 0.04 -0.02 z M19.26 10.98 c-0.02 0 -0.02 -0.02 -0.02 -0.02 l0.02 -0.02 c0.02 0 0.02 0.02 0.02 0.02 c0 0.02 -0.02 0.02 -0.02 0.02 z M11.98 11.44 c-0.02 0.02 -0.04 0.04 -0.06 0.04 s-0.04 -0.02 -0.08 -0.02 c0.02 -0.02 0.04 -0.06 0.06 -0.06 s0.04 0.02 0.08 0.04 z M19.740000000000002 13.96 c-0.02 0 -0.02 -0.02 -0.02 -0.02 c0 -0.02 0.02 -0.02 0.02 -0.02 l0.02 0.02 z M18.22 14.14 c0 0 0 0.02 -0.02 0.02 c0 0 -0.02 -0.02 -0.02 -0.04 c0 0 0.02 0 0.02 -0.02 c0.02 0.02 0.02 0.02 0.02 0.04 z M17.34 14.92 c-0.02 0 -0.02 -0.02 -0.02 -0.02 c0 -0.02 0.02 -0.02 0.02 -0.02 l0.02 0.02 z M18.9 15.280000000000001 c0 0.02 -0.02 0.02 -0.02 0.02 c-0.02 0 -0.04 -0.02 -0.02 -0.02 c0 0 0 -0.02 0.02 -0.02 z M19.62 15.46 c0.04 0 0.06 -0.02 0.08 -0.02 s0.04 0.02 0.06 0.04 c-0.04 0.02 -0.06 0.04 -0.08 0.02 c-0.02 0 -0.04 -0.02 -0.06 -0.04 z M12.66 15.58 c-0.04 0.02 -0.06 0.02 -0.08 0.02 s-0.04 -0.02 -0.06 -0.04 c0.04 0 0.06 -0.02 0.08 -0.02 s0.04 0.02 0.06 0.04 z M14.14 15.620000000000001 c0.02 0.02 0.04 0.02 0.04 0.04 c0.02 0.04 -0.06 0.12 -0.12 0.12 c0 0 -0.02 -0.02 -0.02 -0.04 c-0.02 -0.06 0.04 -0.12 0.1 -0.12 z M19.740000000000002 15.7 c-0.02 -0.02 -0.02 -0.02 -0.02 -0.04 l0.02 -0.02 c0 0.02 0.02 0.02 0.02 0.04 z M13.420000000000002 15.74 l0 0.04 l-0.04 -0.02 z M14.180000000000001 16.88 c0 0.02 0.02 0.02 0.02 0.04 c-0.02 0.04 -0.04 0.04 -0.06 -0.02 c0 0 0.02 0 0.04 -0.02 z M12.56 17.1 c0 0.02 -0.02 0.04 -0.02 0.02 c-0.04 0 -0.04 -0.02 0 -0.04 z M17.14 17.14 c0 -0.02 -0.02 -0.02 -0.02 -0.04 c0 0 0.02 -0.02 0.04 -0.02 c0 0 0 0.02 0.02 0.02 z M18.96 17.18 c0.02 0 0.04 -0.02 0.08 -0.02 l0.04 0.06 l-0.08 0.02 z M16.12 18.16 c-0.02 0.04 -0.04 0.04 -0.06 0 c0 0 0.02 -0.02 0.04 -0.02 z M14.360000000000001 18.32 c0.02 0.02 0.04 0.02 0.02 0.04 c0 0.04 -0.02 0.02 -0.04 -0.02 c0 0 0.02 0 0.02 -0.02 z M15.740000000000002 18.36 c-0.02 0 -0.02 0.02 -0.04 0.02 l-0.02 -0.02 c0.02 -0.02 0.02 -0.02 0.02 -0.04 z M12.64 18.58 c-0.02 0 -0.02 -0.02 -0.04 -0.04 c0.02 0 0.02 -0.02 0.04 -0.02 c0 0.02 0.02 0.02 0.02 0.04 z M18.520000000000003 18.56 c-0.02 0 -0.02 0 -0.04 0.02 c0 -0.02 -0.02 -0.02 -0.02 -0.04 c0 0 0.02 -0.02 0.04 -0.02 c0 0 0.02 0.02 0.02 0.04 z M18.3 18.76 c-0.04 -0.02 -0.04 -0.04 0 -0.04 l0.02 0.02 z M14.360000000000001 19.06 c0 -0.02 -0.02 -0.02 -0.02 -0.04 l0.02 -0.02 c0.02 0.02 0.02 0.02 0.02 0.04 z M17.6 19.14 c0.02 -0.02 0.02 -0.04 0.04 -0.04 l0.02 0.02 c0 0.02 -0.02 0.02 -0.02 0.02 l-0.04 0 z M14.940000000000001 19.24 c-0.02 0 -0.02 -0.02 -0.02 -0.02 c0 -0.02 0.02 -0.02 0.02 -0.04 c0.02 0.02 0.02 0.04 0.02 0.04 z M13.700000000000001 19.24 c-0.04 -0.02 -0.04 -0.04 0 -0.04 c0 -0.02 0.02 0 0.02 0.02 z M32.7 19.48 c0.1 0.28 -0.08 0.5 -0.38 0.52 c-0.7 0 -1.4 -0.02 -2.12 0 c-0.16 0 -0.3 -0.1 -0.46 -0.12 c-0.02 0 -0.08 -0.06 -0.08 -0.1 c0 -0.46 0 -0.92 0.02 -1.38 c0 -0.06 0.04 -0.12 0.06 -0.18 c0 -0.04 0 -0.1 -0.02 -0.14 c-0.06 -0.1 -0.08 -0.2 0 -0.3 c0.06 -0.1 0.04 -0.22 0.02 -0.32 c-0.1 -0.36 -0.12 -0.7 -0.04 -1.08 c0.02 -0.1 -0.04 -0.18 0.04 -0.28 c0.04 -0.06 -0.06 -0.14 -0.06 -0.22 c-0.02 -0.1 -0.02 -0.2 0.04 -0.32 c0.02 -0.04 0.02 -0.12 0.04 -0.18 c0.02 0.02 0.06 0.02 0.08 0.04 c0.06 0.06 0.12 0.02 0.16 -0.04 c0.04 -0.04 0.02 -0.08 -0.02 -0.12 c-0.04 -0.02 -0.06 -0.08 -0.12 -0.02 c-0.04 0.04 -0.06 0.1 -0.1 0.14 c-0.02 -0.02 -0.08 -0.06 -0.08 -0.08 c0.06 -0.14 0.1 -0.26 0 -0.4 c-0.04 -0.04 0 -0.12 0 -0.18 c-0.02 -0.2 -0.02 -0.38 -0.02 -0.58 c0 -0.1 0 -0.22 -0.06 -0.32 c-0.02 -0.06 -0.02 -0.16 0 -0.22 c0.1 -0.2 0.06 -0.38 0.06 -0.58 c0 -0.06 -0.06 -0.12 -0.1 -0.2 c-0.04 -0.04 -0.14 -0.02 -0.16 0.02 c-0.06 0.14 -0.14 0.26 -0.12 0.42 c0.04 0.26 -0.14 0.52 -0.12 0.78 c-0.08 0.2 -0.16 0.42 -0.32 0.58 c-0.14 0.14 -0.12 0.14 0.02 0.3 l0.06 0.06 c0.06 0.08 0.08 0.14 0.02 0.22 c-0.08 0.06 -0.02 0.14 0 0.2 c0.02 0.02 0 0.06 -0.02 0.08 c-0.04 0.02 -0.1 0.02 -0.08 0.08 c0.04 0.08 0.06 0.14 0.04 0.22 c0 0.12 -0.02 0.14 -0.16 0.18 c-0.1 0.04 -0.14 0.1 -0.08 0.16 c0.14 0.12 0.18 0.26 0.06 0.42 c0 0.28 -0.08 0.56 -0.18 0.82 c-0.02 0.04 0 0.1 -0.02 0.14 c0 0.18 0.02 0.36 -0.02 0.52 c-0.06 0.16 -0.06 0.32 -0.08 0.48 c-0.06 0.16 -0.12 0.32 -0.16 0.48 c-0.02 0.18 -0.02 0.36 -0.02 0.54 c-0.02 0.12 0.04 0.28 -0.08 0.4 s-0.28 0.1 -0.42 0.16 c-0.06 0.02 -0.14 0 -0.2 0 l-0.48 0 c-0.2 0.02 -0.36 -0.04 -0.52 -0.16 c-0.1 -0.08 -0.12 -0.14 -0.12 -0.24 l0 -0.72 c0 -0.16 0.02 -0.32 -0.08 -0.46 c-0.02 -0.06 0 -0.14 0.02 -0.2 s0.02 -0.1 0 -0.16 c-0.08 -0.14 -0.14 -0.28 -0.14 -0.46 c0 -0.08 -0.04 -0.14 -0.06 -0.22 c-0.1 -0.36 -0.24 -0.72 -0.22 -1.12 c0 -0.1 -0.06 -0.2 -0.08 -0.3 c0 -0.04 0.02 -0.06 0.06 -0.04 s0.08 0.04 0.1 -0.02 s-0.02 -0.08 -0.08 -0.1 c-0.26 -0.1 -0.28 -0.1 -0.28 -0.36 c-0.02 -0.08 0.02 -0.1 0.1 -0.08 c0.02 0 0.06 0.04 0.08 0.04 c0.06 -0.02 0.12 -0.02 0.18 -0.06 c0.02 -0.02 0 -0.06 0.02 -0.12 c0.04 -0.06 0.1 -0.1 0.16 -0.14 c-0.1 -0.12 0.1 -0.26 -0.04 -0.36 c-0.02 -0.02 -0.02 -0.06 -0.04 -0.08 c-0.06 -0.02 -0.12 -0.02 -0.18 -0.06 c-0.1 -0.06 -0.18 -0.02 -0.24 0.04 c-0.08 0.08 -0.04 0.14 0 0.22 c0.02 0.02 0.02 0.06 0.02 0.08 c0 0.04 -0.02 0.06 -0.04 0.08 c-0.02 0 -0.08 0 -0.08 -0.02 c-0.06 -0.1 -0.1 -0.2 -0.14 -0.3 c-0.06 -0.22 -0.06 -0.46 -0.16 -0.68 c-0.02 -0.04 -0.02 -0.1 -0.02 -0.14 c0 -0.36 -0.02 -0.52 -0.12 -0.72 c-0.04 -0.04 -0.12 -0.04 -0.18 0 s-0.1 0.12 -0.1 0.2 c0.02 0.3 -0.04 0.6 0.04 0.9 l0.02 0.08 c-0.1 0.2 -0.04 0.42 -0.06 0.62 c-0.02 0.06 -0.02 0.12 -0.06 0.18 c-0.04 0.08 -0.04 0.14 0.02 0.22 c0.02 0.04 0.04 0.12 0.04 0.18 c0.02 0.14 -0.02 0.28 0.06 0.4 c0.02 0.04 0.02 0.08 0.02 0.1 c-0.1 0.14 -0.1 0.26 0 0.4 c0 0.22 0.02 0.44 -0.02 0.66 c-0.06 0.36 -0.06 0.34 0.02 0.78 c0.02 0.1 0 0.2 0 0.3 c0.02 0.1 -0.02 0.18 -0.04 0.26 c-0.02 0.1 0.06 0.2 0.04 0.28 c0 0.22 0.04 0.42 0.1 0.6 c0.04 0.1 0.1 0.2 0.08 0.28 c-0.06 0.1 -0.16 0.2 -0.26 0.28 c-0.14 0.1 -0.3 0.16 -0.48 0.16 c-0.16 -0.02 -0.3 -0.02 -0.44 -0.02 c-0.12 0 -0.26 0 -0.36 0.08 c-0.04 0.02 -0.08 0.02 -0.1 0 c-0.26 -0.14 -0.54 -0.06 -0.8 -0.06 c-0.16 0 -0.3 -0.04 -0.46 -0.12 c-0.08 -0.04 -0.14 -0.12 -0.14 -0.24 l0 -1.18 l0 -0.1 c0.14 -0.32 0.12 -0.64 0.04 -0.98 c-0.02 -0.08 0.06 -0.2 0.04 -0.26 c-0.1 -0.22 -0.08 -0.44 -0.08 -0.66 c0 -0.08 -0.04 -0.16 -0.06 -0.22 c-0.04 -0.1 0 -0.16 0.08 -0.2 c0.04 -0.02 0.06 -0.08 0.06 -0.1 c-0.12 -0.24 -0.08 -0.48 -0.08 -0.7 l0 -2.84 c0 -0.12 0.02 -0.24 -0.04 -0.36 s-0.04 -0.22 0 -0.32 c0.04 -0.12 0.04 -0.26 0.04 -0.38 l0 -0.62 c0 -0.06 0 -0.14 0.04 -0.18 c0.02 -0.04 0.1 -0.04 0.16 -0.06 c0.02 0 0.04 -0.02 0.04 -0.02 c0 -0.02 -0.02 -0.06 -0.02 -0.06 c-0.06 -0.02 -0.14 -0.02 -0.2 -0.04 c-0.04 -0.04 -0.1 -0.06 -0.08 -0.16 c0.08 -0.34 0.08 -0.46 0 -0.78 c-0.02 -0.06 -0.02 -0.12 0 -0.18 c0.04 -0.08 0.08 -0.16 0.04 -0.24 c-0.06 -0.16 -0.04 -0.32 0 -0.48 c0.04 -0.1 0.02 -0.22 -0.02 -0.34 s-0.04 -0.24 -0.06 -0.36 c0 -0.12 0.04 -0.22 0.14 -0.3 c0.02 -0.02 0.04 -0.1 0.04 -0.12 c-0.02 -0.04 -0.06 -0.06 -0.1 -0.08 l-0.04 -0.04 c0.02 -0.02 0.04 -0.04 0.06 -0.04 c0.02 -0.02 0.06 -0.02 0.1 -0.02 c0.04 -0.02 0.08 -0.04 0.04 -0.1 l-0.14 -0.18 c0.06 -0.02 0.14 -0.02 0.18 -0.06 c0.06 -0.04 0.2 -0.02 0.18 -0.16 c0 -0.08 -0.08 -0.06 -0.28 0.02 c-0.1 0.04 -0.08 0.12 -0.08 0.2 l-0.08 -0.06 c0 -0.24 -0.06 -0.48 0.02 -0.72 c0.04 -0.04 0 -0.08 0 -0.12 c-0.02 -0.24 -0.04 -0.48 -0.02 -0.7 c0 -0.12 0.1 -0.24 0.16 -0.34 c0.02 -0.04 0.08 -0.06 0.12 -0.06 c0.34 0 0.7 -0.08 1.04 0.06 c0.08 0.04 0.18 0 0.28 0.02 c0.14 0.02 0.3 -0.02 0.46 0.06 c0.08 0.06 0.2 -0.08 0.3 0.02 l0.32 -0.08 c0.08 0 0.18 0.06 0.26 0.04 c0.28 -0.1 0.58 -0.02 0.86 -0.02 c0.12 -0.02 0.2 0.06 0.2 0.2 c0.02 0.24 0.14 0.46 0.1 0.7 c0.14 0.22 0.06 0.5 0.16 0.74 c0.02 0.04 -0.04 0.1 -0.06 0.16 c-0.06 0.02 -0.12 0.06 -0.18 0.1 l-0.06 -0.18 c0 -0.02 -0.06 -0.02 -0.08 0 c-0.04 0 -0.04 0.04 -0.02 0.06 l0.16 0.12 c-0.04 0.08 -0.12 0.18 0.02 0.26 l0.16 0.12 c0 0.02 0 0.06 0.02 0.08 c0 0.04 0.02 0.06 0.04 0.08 l0.02 -0.02 c0 -0.04 0.02 -0.08 0 -0.1 s-0.06 -0.02 -0.08 -0.04 l0 -0.1 l0.06 -0.06 s0.04 0 0.04 0.02 l0.14 0.24 c0.16 0.38 0.2 0.8 0.3 1.18 c0 0.02 -0.04 0.06 -0.06 0.06 c-0.08 0.04 -0.12 0.1 -0.08 0.2 c0 0.04 0.02 0.08 0.08 0.04 c0.02 0 0.08 -0.02 0.08 0 c0.04 0.04 0.1 0.08 0.1 0.12 c0 0.14 0.08 0.3 0.1 0.44 s0.08 0.26 0.1 0.38 c0 0.14 0.1 0.22 0.2 0.3 c0.06 0.08 0.14 0.06 0.18 -0.02 c0.06 -0.12 0.1 -0.24 0.14 -0.36 c0.12 -0.28 0.2 -0.56 0.16 -0.86 c0 -0.12 0.02 -0.24 0.12 -0.32 c0.06 -0.04 0.02 -0.1 0 -0.16 c-0.04 -0.16 -0.02 -0.18 0.12 -0.24 c0.24 -0.1 0.48 -0.14 0.74 -0.04 c0.02 0.02 0.1 -0.02 0.12 -0.04 c0.08 -0.1 0.08 -0.28 0.02 -0.36 s-0.26 -0.14 -0.34 -0.1 l-0.56 0.24 c-0.06 0.02 -0.12 -0.06 -0.1 -0.12 c0.04 -0.12 0.08 -0.24 0.14 -0.34 c0 -0.04 0.06 -0.08 0.1 -0.08 c0.04 -0.02 0.08 0.02 0.12 0.04 c0.04 0 0.06 0.02 0.1 0.02 c0.12 -0.02 0.1 -0.18 0.24 -0.2 c0.02 0 0.04 -0.08 0.04 -0.12 s-0.02 -0.12 -0.04 -0.12 c-0.1 -0.02 -0.2 0 -0.28 0 l-0.02 0.08 c0.06 0.1 -0.04 0.14 -0.1 0.16 c-0.02 0.02 -0.1 -0.02 -0.12 -0.04 c-0.02 -0.04 0 -0.1 0 -0.16 c0 -0.04 -0.02 -0.1 0 -0.14 c0.14 -0.22 0.04 -0.5 0.16 -0.74 c0.06 -0.14 0.02 -0.3 0.12 -0.44 c-0.04 -0.18 0.08 -0.3 0.1 -0.46 c0.02 -0.12 0.1 -0.2 0.24 -0.2 c0.08 0 0.18 0 0.28 0.02 c0.04 0 0 0.04 0 0.06 c-0.02 0.14 0.1 0.24 0.18 0.2 c0.06 -0.04 0.06 -0.1 0.04 -0.18 c-0.04 -0.08 -0.04 -0.1 0.04 -0.1 c0.12 0 0.12 0.02 0.1 0.12 c0 0.04 0 0.1 0.02 0.12 c0.08 0.06 0.16 0.1 0.24 0.12 c0.02 0.02 0.08 -0.02 0.08 -0.04 c0.02 -0.08 0.02 -0.14 0.02 -0.22 c0.04 0 0.1 0 0.14 -0.02 c0.14 0 0.26 -0.14 0.4 0 c0.02 0 0.08 0 0.1 -0.02 c0.14 -0.1 0.3 -0.06 0.46 -0.06 c0.1 0 0.14 0.04 0.16 0.14 c0.02 0.14 0.06 0.16 0.18 0.14 c0.16 0 0.24 -0.06 0.24 -0.16 c0 -0.06 -0.04 -0.12 0.06 -0.12 c0.24 0 0.48 -0.06 0.7 0.06 c0.22 -0.12 0.22 0.12 0.32 0.18 c0.02 0 0 0.08 0 0.08 c-0.06 0.06 -0.14 0.1 -0.2 0.14 c-0.02 0.02 -0.02 0.06 -0.02 0.08 c0.02 0.02 0.06 0.04 0.08 0.04 l0.18 -0.06 c0.08 -0.04 0.14 -0.02 0.16 0.02 c0.02 0.08 0 0.18 -0.06 0.2 s-0.12 0.02 -0.14 0.04 c-0.08 0.1 -0.3 0.12 -0.18 0.32 l-0.12 0.14 c-0.04 0.04 -0.02 0.08 0.04 0.1 c0.12 0 0.16 -0.02 0.18 -0.1 c0.02 -0.02 0 -0.06 0.02 -0.1 c0.02 -0.08 0.12 -0.1 0.18 -0.04 c0.12 0.1 0.1 0.24 0.08 0.36 c0 0.02 -0.04 0.06 -0.08 0.06 l-0.24 0 c-0.04 0.02 -0.1 0.06 -0.16 0.08 c-0.06 0.04 -0.04 0.1 0 0.16 c0.12 0.1 0.24 0.06 0.36 0.06 c0.1 0.02 0.12 0.04 0.08 0.12 c-0.04 0.06 -0.02 0.12 0.02 0.18 c0.02 0.06 0.04 0.14 0.02 0.18 c-0.12 0.26 -0.06 0.54 -0.08 0.8 l0 0.24 c-0.02 0.04 -0.06 0.1 -0.08 0.1 c-0.2 -0.02 -0.22 0.16 -0.3 0.28 c-0.06 0.1 0.02 0.2 0.16 0.22 l0.08 0 c0.08 0 0.14 0.02 0.14 0.1 l0 0.58 c0 0.08 0 0.16 -0.04 0.24 c-0.1 0.24 -0.08 0.48 0 0.74 c0.04 0.08 0.04 0.18 0.04 0.28 l0 1.44 c0 0.08 -0.02 0.14 -0.12 0.18 c-0.02 0 -0.04 0.06 -0.02 0.06 c0.16 0.14 0.14 0.34 0.14 0.52 l0 0.96 c0 0.12 0.08 0.24 0.06 0.32 c-0.04 0.12 -0.08 0.22 -0.06 0.32 c0.04 0.2 -0.08 0.3 -0.22 0.38 c-0.04 0.02 -0.06 0.08 0 0.12 c0.02 0.02 0.06 0.04 0.1 0.04 s0.06 -0.04 0.1 -0.04 c0.02 0.02 0.08 0.04 0.1 0.08 c0.02 0.18 0.04 0.38 -0.14 0.52 c-0.04 0.04 -0.04 0.12 -0.02 0.18 c0 0.08 0.06 0.14 0.08 0.22 c0.08 0.18 0.1 0.36 0.1 0.56 l0 2.06 c0 0.18 0 0.36 0.06 0.56 z M29.6 5.16 c0.06 -0.04 0.04 0.02 0.06 0.06 z M32.620000000000005 5.24 c-0.02 0.06 -0.04 0.06 -0.06 0 c0 -0.02 0 -0.06 0.02 -0.08 l0.02 0 c0.02 0.04 0.02 0.06 0.02 0.08 z M22.8 5.32 c0 0.02 -0.02 0.02 -0.02 0.02 c0 0.04 0.02 0.06 0.04 0.02 c0 0 -0.02 -0.02 -0.02 -0.04 z M31.86 5.32 c-0.06 0 -0.08 0.04 -0.08 0.1 c0 0.04 0.04 0.08 0.08 0.06 c0.04 0 0.08 -0.04 0.12 -0.08 c-0.06 -0.04 -0.08 -0.08 -0.12 -0.08 z M25.76 5.34 l-0.02 0.08 c0 0.02 0.02 0.04 0.04 0.04 l0.04 -0.06 z M22.28 5.82 c0.04 0 0.06 -0.02 0.08 -0.04 c0 0.1 0.02 0.18 0.12 0.24 c0 0.02 0.02 0.02 0.04 0.02 c0 -0.02 0.02 -0.04 0.02 -0.08 c-0.02 -0.1 -0.08 -0.14 -0.18 -0.18 c0.04 -0.08 0.06 -0.16 0.1 -0.26 c0.02 -0.06 -0.06 -0.14 -0.14 -0.12 c-0.06 0 -0.14 0.02 -0.14 0.1 c0 0.1 -0.02 0.22 0 0.32 c0.02 0.06 0.06 0.04 0.1 0 z M31.380000000000003 5.52 c-0.06 -0.02 -0.08 0.02 -0.08 0.08 s0.04 0.08 0.1 0.08 l0.08 0 l0 -0.08 c0 -0.06 -0.04 -0.08 -0.1 -0.08 z M23.78 5.52 l-0.04 0.06 c0.02 0 0.02 0 0.04 -0.02 l0 -0.04 z M25.1 5.52 l-0.02 0.02 c0 0.02 0 0.04 0.02 0.04 c0 0 0.02 -0.02 0.02 -0.04 c0 0 0 -0.02 -0.02 -0.02 z M30.380000000000003 5.52 l-0.02 0.02 c0 0.04 0.02 0.04 0.04 0 c0 0 0 -0.02 -0.02 -0.02 z M23.580000000000002 5.619999999999999 c-0.02 0 -0.04 0.02 -0.04 0.02 c0 0.02 0.02 0.04 0.04 0.04 c0.06 0.02 0.12 -0.02 0.12 -0.08 c-0.04 0 -0.08 0 -0.12 0.02 z M31.78 5.699999999999999 c-0.02 0.04 0 0.1 0.02 0.14 c0 0.02 0.1 0.04 0.12 0.02 l0.06 -0.12 c-0.02 -0.02 -0.02 -0.04 -0.02 -0.06 c-0.02 -0.04 -0.04 -0.1 -0.1 -0.06 c-0.04 0 -0.08 0.04 -0.08 0.08 z M23.28 5.619999999999999 c-0.02 0.02 -0.04 0.04 -0.04 0.06 c0 0.04 0.02 0.06 0.04 0.08 c0 -0.02 0.02 -0.04 0.04 -0.06 c-0.02 -0.04 -0.02 -0.06 -0.04 -0.08 z M24.72 5.619999999999999 c-0.02 0 -0.04 0.02 -0.04 0.02 c0 0.02 0.02 0.02 0.04 0.04 c0 -0.02 0.02 -0.02 0.02 -0.04 z M24.080000000000002 5.699999999999999 c-0.02 0 -0.02 0.02 -0.04 0.02 l0.04 0.06 c0.04 0 0.06 -0.04 0.08 -0.04 c-0.04 -0.02 -0.06 -0.04 -0.08 -0.04 z M31.560000000000002 5.74 c-0.02 -0.02 -0.06 -0.04 -0.08 -0.04 c0.02 0.04 0.02 0.08 0.08 0.04 z M29.240000000000002 5.720000000000001 c-0.02 0 -0.02 0.02 -0.04 0.04 l0.04 0 l0.02 -0.02 z M30.740000000000002 6.08 l0.04 -0.06 c0 -0.02 -0.02 -0.04 -0.04 -0.04 c-0.08 -0.02 -0.14 0 -0.2 -0.08 c-0.1 -0.14 -0.12 -0.14 -0.22 -0.06 c-0.16 0.16 -0.32 0.2 -0.5 0.08 c-0.04 -0.04 -0.08 -0.04 -0.14 -0.04 c-0.04 -0.02 -0.1 0.04 -0.08 0.08 c0.06 0.18 0.12 0.22 0.32 0.22 c0.02 0 0.12 0 0.18 -0.04 c0.1 -0.06 0.24 -0.06 0.36 -0.06 l0.28 0 z M22.78 5.84 c-0.02 0 0 0.02 0.02 0.02 l0.02 -0.02 c0 -0.02 -0.02 -0.02 -0.02 -0.04 c-0.02 0.02 -0.02 0.02 -0.02 0.04 z M23.54 5.9 c-0.1 -0.02 -0.2 0.08 -0.2 0.18 c0 0.04 0.06 0.06 0.06 0.08 c0.14 -0.02 0.22 -0.12 0.2 -0.22 c0 -0.02 -0.04 -0.04 -0.06 -0.04 z M23.740000000000002 5.92 c0 0.02 -0.02 0.04 -0.02 0.08 l0.04 0.04 c0.02 -0.02 0.02 -0.04 0.04 -0.08 c-0.02 0 -0.04 -0.02 -0.06 -0.04 z M25.12 6.48 l-0.06 0.06 c0 0.06 0.04 0.1 0.08 0.1 c0.04 0.02 0.1 0.02 0.18 0.02 c0.04 -0.02 0.14 -0.02 0.18 -0.06 c0.12 -0.16 0.18 -0.36 0.22 -0.56 c0 -0.02 -0.02 -0.04 -0.04 -0.04 s-0.06 -0.02 -0.08 0 c-0.04 0 -0.06 0.04 -0.06 0.06 c0 0.14 -0.04 0.2 -0.2 0.2 c-0.02 0 -0.06 0.04 -0.06 0.04 c0.1 0.24 -0.12 0.12 -0.16 0.18 z M25.880000000000003 6 c-0.02 0 -0.06 0.06 -0.06 0.1 c0 0.18 0.14 0.24 0.24 0.32 c0 0.02 0.02 0 0.04 -0.02 l0 -0.04 c-0.04 -0.1 -0.06 -0.22 -0.1 -0.32 c-0.02 -0.02 -0.08 -0.06 -0.12 -0.04 z M22.7 6.119999999999999 c-0.02 0.02 -0.04 0.04 -0.04 0.06 s0.04 0.04 0.04 0.06 c0.02 -0.02 0.02 -0.06 0.04 -0.08 z M22.94 6.359999999999999 c-0.08 0 -0.16 0 -0.22 0.08 c-0.04 0.04 -0.04 0.1 0 0.1 c0.02 0 0.06 0.02 0.08 0 l0.14 -0.16 c0.02 0 0.04 0 0.06 -0.02 c0.04 0 0.06 -0.02 0.1 -0.04 c-0.02 -0.04 -0.04 -0.08 -0.08 -0.1 c-0.02 -0.04 -0.06 -0.04 -0.06 0 c-0.02 0.04 -0.02 0.1 -0.02 0.14 z M30.34 6.5600000000000005 c0.04 0.1 0.08 0.18 -0.06 0.22 c0 0 0 0.06 0.02 0.06 l0.24 0.16 c0.04 0.02 0.08 -0.02 0.08 -0.06 l0 -0.14 c0 -0.08 0.02 -0.14 0 -0.2 l-0.12 -0.3 c-0.02 -0.02 -0.06 -0.02 -0.1 -0.02 c-0.02 0 -0.06 0.04 -0.06 0.06 c0 0.08 -0.02 0.16 0 0.22 z M31.3 6.640000000000001 l0.18 0 l0 0.02 c0 0.04 0 0.06 0.02 0.08 c0.02 0.1 0.1 0.12 0.16 0.06 l0.06 -0.06 c0.06 -0.06 0.06 -0.14 0 -0.16 l-0.12 0 c-0.04 0.02 -0.08 0.04 -0.12 0.08 c0.04 -0.14 -0.08 -0.24 -0.12 -0.34 c0 -0.02 -0.02 -0.02 -0.02 -0.02 c-0.02 0 -0.04 0.02 -0.04 0.04 l0 0.3 z M22.38 6.460000000000001 c0.02 0.04 0.04 0.06 0.1 0.12 c0.02 -0.06 0.06 -0.1 0.06 -0.14 s-0.04 -0.08 -0.1 -0.06 c-0.04 0 -0.08 0.02 -0.06 0.08 z M29.16 6.539999999999999 c-0.16 -0.02 -0.18 -0.02 -0.14 0.06 c0.02 0.06 0.02 0.12 0 0.18 c-0.04 0.16 0.06 0.26 0.22 0.26 c0.04 0 0.12 -0.02 0.1 -0.08 c-0.06 -0.12 0.06 -0.2 0.08 -0.3 c0 -0.04 0 -0.08 -0.02 -0.12 c-0.02 -0.06 -0.08 -0.06 -0.14 -0.02 c-0.04 0.02 -0.1 0.02 -0.1 0.02 z M22.740000000000002 7.6 c-0.08 0 -0.12 0 -0.18 0.02 c-0.04 0 -0.1 0.02 -0.06 0.08 c0.1 0.16 0.16 0.36 0.3 0.48 c0.08 0.1 0.14 0.12 0.28 0.02 c0.06 -0.06 0.14 -0.14 0.24 -0.06 c0.02 0 0.08 0.02 0.08 0 c0.04 -0.12 0.14 -0.2 0.12 -0.34 c0.1 0.04 0.18 0.16 0.3 0.08 c0.04 0 0.08 -0.06 0.06 -0.1 c-0.02 -0.06 -0.06 -0.1 -0.1 -0.14 c-0.06 -0.1 -0.08 -0.18 -0.04 -0.28 c0.08 -0.12 0 -0.2 -0.08 -0.22 c-0.16 -0.06 -0.22 -0.14 -0.24 -0.3 c-0.02 -0.14 -0.14 -0.22 -0.26 -0.28 c-0.06 -0.04 -0.18 0 -0.2 0.06 c-0.04 0.08 -0.08 0.14 -0.1 0.22 s0.08 0.08 0.12 0.12 c0.06 0.08 0.1 0.16 0.14 0.24 l-0.02 0.2 c-0.02 0.08 -0.12 0.1 -0.18 0.04 c-0.04 -0.04 -0.06 -0.08 -0.1 -0.1 c-0.04 0 -0.1 0 -0.12 0.02 c-0.04 0.02 -0.02 0.08 -0.02 0.12 c0.02 0.06 0.04 0.08 0.06 0.12 z M25.82 6.640000000000001 l0.06 -0.04 c-0.02 0 -0.04 -0.04 -0.06 -0.04 s-0.04 0.02 -0.06 0.04 z M30.3 7.18 c0.02 -0.02 0.04 -0.08 0.02 -0.08 c-0.14 -0.16 -0.26 -0.32 -0.38 -0.5 c-0.02 -0.02 -0.06 -0.02 -0.08 -0.04 c-0.02 0 -0.04 0 -0.04 0.02 c-0.02 0.02 -0.06 0.04 -0.04 0.06 c0 0.06 0.04 0.12 0.06 0.18 c0.08 0.18 0.24 0.28 0.36 0.42 c0.06 -0.04 0.08 -0.04 0.1 -0.06 z M30.86 6.640000000000001 c0 -0.02 0.02 -0.02 0.02 -0.04 c0 0 0 -0.02 -0.02 -0.02 l-0.02 0.02 c0 0.02 0.02 0.02 0.02 0.04 z M24.66 6.66 c-0.04 0 -0.08 0.04 -0.06 0.08 c0 0.04 0.04 0.08 0.08 0.12 l0.08 -0.12 c0 -0.06 -0.02 -0.08 -0.1 -0.08 z M31.28 6.66 c-0.04 0 -0.1 0 -0.04 0.06 c0.02 -0.02 0.04 -0.04 0.04 -0.06 z M29.68 6.880000000000001 c0 0.02 0.02 0.04 0.02 0.04 c0.02 0 0.02 -0.02 0.04 -0.02 c-0.02 -0.02 -0.02 -0.02 -0.02 -0.04 c-0.02 0.02 -0.04 0.02 -0.04 0.02 z M30.96 6.859999999999999 c0 0.02 -0.02 0.02 -0.02 0.02 c0 0.04 0.02 0.04 0.04 0.02 c0 -0.02 -0.02 -0.02 -0.02 -0.04 z M25.18 6.880000000000001 c-0.06 0 -0.14 0.14 -0.12 0.18 c0.06 0.12 0.14 0.2 0.26 0.26 l0.1 -0.04 s0.02 -0.04 0 -0.04 c-0.04 -0.14 -0.08 -0.28 -0.2 -0.36 l-0.04 0 z M26.28 6.98 c-0.08 0.06 -0.06 -0.02 -0.08 -0.04 c0.02 0.02 0.04 0.02 0.08 0.04 z M24.02 7.1 c0.08 0.08 0 0.14 -0.02 0.2 c0 0.04 0.04 0.08 0.06 0.1 c0.04 0 0.08 0 0.08 -0.02 c0.04 -0.1 0.1 -0.18 0.12 -0.28 c0 -0.04 -0.06 -0.12 -0.12 -0.14 c-0.02 -0.02 -0.08 0 -0.1 0.02 c-0.04 0.02 -0.04 0.1 -0.02 0.12 z M22.82 7.08 c-0.02 0 -0.04 -0.04 -0.06 -0.04 c-0.04 0 -0.06 0.02 -0.08 0.04 l0.06 0.04 c0.04 -0.02 0.06 -0.02 0.08 -0.04 z M31.98 7.18 c0 -0.06 -0.04 -0.12 -0.1 -0.14 c-0.06 0 -0.18 0.08 -0.18 0.12 c0 0.06 0.08 0.14 0.16 0.14 c0.06 0.02 0.1 -0.04 0.12 -0.12 z M24.46 7.140000000000001 c-0.02 0 -0.06 0.04 -0.04 0.04 c0.02 0.12 0.2 0.2 0.3 0.12 c0 -0.02 0 -0.02 0.02 -0.04 c-0.02 -0.02 -0.02 -0.02 -0.02 -0.04 c-0.08 -0.08 -0.16 -0.12 -0.26 -0.08 z M31.4 7.34 l0.08 -0.12 c0 -0.06 -0.02 -0.08 -0.08 -0.08 c-0.08 0 -0.12 0.04 -0.1 0.1 c0.02 0.04 0.06 0.06 0.1 0.1 z M22.48 7.18 l0.02 0.02 c0.02 0 0.02 -0.02 0.04 -0.02 c-0.02 0 -0.02 -0.02 -0.02 -0.02 c-0.02 0 -0.04 0 -0.04 0.02 z M28.94 7.16 c0 0 -0.02 0 -0.02 0.02 c0 0.04 0.02 0.04 0.04 0 c0 0 0 -0.02 -0.02 -0.02 z M24.4 7.460000000000001 c-0.04 0.02 0.02 0.12 0.12 0.16 c0.06 0.04 0.12 0.06 0.18 0.08 c0.04 0.02 0.12 0 0.12 -0.02 c0.04 -0.14 0.2 -0.16 0.28 -0.26 c0 -0.02 0 -0.04 0.02 -0.06 l-0.04 -0.04 c-0.08 0.02 -0.16 0 -0.18 0.04 c-0.1 0.1 -0.2 0.14 -0.34 0.06 c-0.02 -0.02 -0.1 0.02 -0.16 0.04 z M29.32 7.68 c0.02 0.02 0.08 0.02 0.12 0.04 c0.04 -0.02 0.1 -0.04 0.12 -0.08 c0.04 -0.08 -0.02 -0.24 -0.12 -0.28 c-0.06 -0.04 -0.1 0.04 -0.14 0.08 c-0.06 0.06 -0.1 0.06 -0.12 -0.04 c-0.04 -0.08 -0.12 -0.08 -0.2 -0.06 c-0.08 0 -0.1 0.08 -0.1 0.14 c0.02 0.08 0.02 0.14 0.06 0.22 c0.02 0.08 0.1 0.08 0.18 0.02 c0.06 -0.06 0.1 -0.12 0.2 -0.04 z M23.48 7.380000000000001 c0 0 -0.02 0.02 -0.04 0.02 s-0.04 -0.02 -0.08 -0.02 c0.02 -0.02 0.02 -0.04 0.02 -0.04 z M30.46 7.380000000000001 c0 0 0 0.02 0.02 0.02 l0.02 -0.02 c0 -0.02 -0.02 -0.02 -0.02 -0.04 c0 0.02 -0.02 0.02 -0.02 0.04 z M25.560000000000002 7.48 c0.02 -0.02 0.04 -0.04 0.06 -0.04 c0 -0.04 -0.02 -0.06 -0.02 -0.08 c-0.02 0 -0.06 0.02 -0.06 0.04 z M30.92 7.4399999999999995 c0 0 0.04 0.02 0.04 0.04 c0.02 -0.02 0.02 -0.06 0.04 -0.08 l-0.06 -0.04 c0 0.02 -0.02 0.04 -0.02 0.08 z M32.1 7.460000000000001 c-0.02 0.02 -0.04 0.04 -0.04 0.08 c0.02 0 0.04 0.02 0.06 0.04 c0 -0.02 0.02 -0.04 0.04 -0.08 z M28.68 7.6 c0.04 0 0.06 -0.02 0.08 -0.02 c-0.02 -0.02 -0.02 -0.06 -0.04 -0.06 s-0.06 0.02 -0.1 0.04 c0.04 0.02 0.04 0.04 0.06 0.04 z M22.76 7.6 l-0.02 0.02 l0 -0.02 l0.02 0 z M22.82 7.66 c-0.06 0.04 -0.06 -0.02 -0.06 -0.06 z M25.5 7.640000000000001 c-0.02 0 -0.04 -0.02 -0.04 -0.02 c-0.06 0 -0.12 0 -0.18 0.02 l-0.02 0.08 c0 0.02 0.04 0.06 0.06 0.06 c0.06 0.04 0.12 0 0.14 -0.06 c0.02 -0.02 0.02 -0.04 0.04 -0.08 z M23.080000000000002 7.859999999999999 c0 0 -0.04 0 -0.04 -0.02 c-0.04 -0.04 -0.06 -0.1 -0.08 -0.16 c0 0 0 -0.02 0.02 -0.04 l0.04 0 c0.02 0.06 0.06 0.1 0.1 0.16 z M28.16 7.76 c0.02 0 0.04 -0.02 0.04 -0.04 s0 -0.04 -0.02 -0.08 c-0.02 0.02 -0.04 0.04 -0.04 0.06 s0.02 0.04 0.02 0.06 z M29.98 7.76 l0.02 0.02 c0.06 0.04 0.12 0 0.14 -0.06 c-0.02 -0.04 -0.04 -0.06 -0.04 -0.08 z M25.04 7.800000000000001 c0 -0.02 -0.02 -0.04 -0.04 -0.08 c0 0.04 -0.04 0.06 -0.04 0.08 s0.02 0.04 0.04 0.06 c0.02 -0.02 0.04 -0.04 0.04 -0.06 z M31.880000000000003 7.9399999999999995 c0.02 -0.02 0.06 -0.04 0.08 -0.04 c0.04 0.02 0.06 0.08 0.1 0.08 c0.02 0 0.06 -0.04 0.08 -0.06 s0.02 -0.04 0 -0.04 c-0.02 -0.06 -0.06 -0.04 -0.1 -0.02 c-0.02 0.02 -0.04 0.02 -0.08 0.04 l-0.06 -0.12 c-0.06 -0.08 -0.1 -0.06 -0.16 0 c-0.02 0.04 -0.06 0.08 0 0.12 c0.04 0.04 0.08 0.1 0.14 0.04 z M23.44 7.76 c0.08 -0.06 0.06 0.02 0.08 0.04 c-0.02 -0.02 -0.04 -0.02 -0.08 -0.04 z M29.48 8.04 c0.08 0.1 0.14 0.18 0.28 0.14 c0.02 0 0.06 -0.04 0.08 -0.06 c-0.02 -0.04 -0.02 -0.08 -0.04 -0.1 c-0.06 -0.04 -0.12 -0.08 -0.2 -0.1 c-0.04 -0.02 -0.08 0.02 -0.12 0.04 l0 0.08 z M22.1 8.04 c0.04 0.04 0.08 0.08 0.14 0.12 c0 -0.04 0.02 -0.06 0.04 -0.1 c0 -0.1 -0.04 -0.14 -0.08 -0.12 s-0.06 0.06 -0.1 0.1 z M29.22 8.16 c0.02 0 0.02 0 0.04 -0.02 c-0.02 0 -0.02 -0.02 -0.02 -0.02 c-0.02 0 -0.02 0.02 -0.04 0.02 c0.02 0 0.02 0.02 0.02 0.02 z M25.98 9.16 c0.16 0.04 0.26 -0.1 0.36 -0.22 c0.04 -0.04 0.06 -0.1 0.06 -0.18 c0.02 -0.1 0.14 -0.08 0.16 -0.14 c0.02 -0.04 0.04 -0.1 0.04 -0.14 c0 -0.1 -0.06 -0.18 -0.1 -0.26 c-0.04 -0.1 -0.1 -0.12 -0.14 -0.02 c-0.1 0.16 -0.18 0.28 -0.4 0.3 c-0.02 0 -0.06 0.1 -0.1 0.14 c-0.08 0.02 -0.16 0.02 -0.24 0.04 c-0.1 0.02 -0.18 0.08 -0.18 0.18 c0 0.16 -0.06 0.28 -0.1 0.42 l0 0.08 c0.02 0.02 0.02 0.04 0.04 0.04 c0 0.02 0.02 0 0.04 0 l0.18 -0.2 c-0.1 -0.14 0.04 -0.2 0.12 -0.28 c0 0 0.04 0 0.06 -0.02 c0.02 0.04 0.02 0.06 0.02 0.1 c-0.02 0.06 -0.08 0.14 0.06 0.14 c0.02 0 0.06 0 0.12 0.02 z M24.36 8.4 c0.02 -0.12 -0.1 -0.22 -0.2 -0.2 c-0.02 0 -0.04 0.02 -0.04 0.02 c-0.04 0.06 -0.02 0.14 0.06 0.2 c0.06 0.06 0.14 0.06 0.18 0.02 l0 -0.04 z M22.5 8.74 c0.02 0 0.04 0 0.04 -0.02 c0.12 -0.12 0.26 -0.16 0.44 -0.16 c0 0 0.02 -0.02 0.02 -0.04 c0.02 0 0 -0.02 0 -0.04 c-0.14 -0.08 -0.26 -0.18 -0.38 -0.28 c-0.02 0 -0.06 0.04 -0.08 0.06 c-0.12 0.1 -0.08 0.26 -0.14 0.38 c0 0.02 0.06 0.08 0.1 0.1 z M30.16 8.46 c0.02 -0.02 0.04 -0.06 0.08 -0.08 l-0.04 -0.06 c-0.04 0.02 -0.08 0.04 -0.1 0.06 s-0.02 0.04 -0.02 0.04 c0.02 0.02 0.06 0.04 0.08 0.04 z M28.78 8.48 c0.02 -0.06 -0.02 -0.1 -0.06 -0.08 c-0.04 0 -0.08 0.02 -0.14 0.06 c0.06 0.04 0.08 0.08 0.12 0.1 s0.08 -0.02 0.08 -0.08 z M24.48 8.48 c0.02 0.02 0.04 0.06 0.08 0.08 c0.02 0 0.04 -0.02 0.08 -0.04 c0 0 0 -0.02 -0.02 -0.02 c-0.02 -0.04 -0.02 -0.06 -0.04 -0.08 l-0.08 0 s0 0.02 -0.02 0.06 z M25.6 8.52 c0 0 0 -0.02 -0.02 -0.02 l-0.02 0.02 c0 0.04 0.02 0.04 0.04 0 z M23.4 8.84 c0.08 0.04 0.22 -0.08 0.2 -0.18 c0 -0.08 -0.1 -0.12 -0.2 -0.08 c-0.06 0.02 -0.08 0.08 -0.08 0.16 c0.02 0.04 0.04 0.08 0.08 0.1 z M24.060000000000002 8.64 c0.02 0.02 0.06 0 0.08 0 l0 -0.04 l-0.08 -0.02 c-0.04 0.02 -0.04 0.06 0 0.06 z M25.2 9.12 c0.02 0 0.06 -0.02 0.08 -0.04 c0.02 -0.06 0.06 -0.12 0.06 -0.16 c0.02 -0.06 0 -0.12 -0.08 -0.14 c-0.04 -0.02 -0.1 0.02 -0.1 0.1 c-0.02 0.02 -0.02 0.06 -0.02 0.08 c0 0.04 0 0.06 0.02 0.1 c0 0.02 0.02 0.06 0.04 0.06 z M24.78 8.8 c0.02 0.04 0.04 0.04 0.06 0 c0 0 -0.02 0 -0.02 -0.02 c-0.02 0 -0.04 0.02 -0.04 0.02 z M24.060000000000002 8.88 c0 -0.04 -0.12 -0.1 -0.14 -0.08 c-0.1 0.08 -0.18 0.14 -0.28 0.18 c-0.04 0.02 -0.08 0.08 -0.1 0.1 c-0.04 0.06 0 0.16 0.06 0.16 s0.14 0 0.16 -0.04 c0.06 -0.12 0.2 -0.14 0.28 -0.24 c0.02 -0.02 0 -0.06 0.02 -0.08 z M22.4 9.02 c0.02 0 0.04 -0.04 0.06 -0.06 c-0.02 -0.08 -0.06 -0.16 -0.14 -0.16 c0 0 -0.04 0.04 -0.04 0.06 c0 0.06 0.06 0.14 0.12 0.16 z M32.5 8.82 l-0.04 -0.02 l0.04 0 l0 0.02 z M24.82 9.06 l-0.02 0.04 l0.1 0.12 c0.02 -0.02 0.04 -0.04 0.04 -0.06 c0 -0.06 -0.06 -0.12 -0.12 -0.1 z M29.12 9.1 l0.04 0.02 l-0.02 -0.04 z M26.64 9.16 c-0.02 0.02 -0.04 0.02 -0.04 0.02 c0.02 0.06 0.04 0.06 0.06 0.02 c0 -0.02 -0.02 -0.02 -0.02 -0.04 z M23.32 9.28 c-0.06 -0.04 -0.1 -0.08 -0.14 -0.1 c-0.02 0 -0.04 0.02 -0.04 0.04 c0.02 0.04 0.02 0.08 0.06 0.1 c0 0.02 0.04 0 0.08 0 z M32.38 9.18 c0 0.02 -0.02 0.04 -0.02 0.08 c0 0.02 0.02 0.02 0.04 0.04 c0.02 -0.02 0.04 -0.04 0.04 -0.08 c0 -0.02 -0.04 -0.02 -0.06 -0.04 z M26.16 9.4 c0.06 0.02 0.12 0.02 0.18 0.02 c0 0 0.02 -0.02 0.04 -0.02 c-0.02 -0.02 -0.02 -0.04 -0.02 -0.04 c-0.04 -0.04 -0.1 -0.08 -0.14 -0.1 c-0.06 -0.02 -0.1 0.02 -0.1 0.08 c0 0.02 0.02 0.06 0.04 0.06 z M31.82 9.46 l0.12 -0.06 c0 -0.04 -0.02 -0.04 -0.02 -0.06 c-0.04 -0.04 -0.08 -0.08 -0.12 -0.08 c-0.12 0 -0.22 0.06 -0.3 0.16 c-0.02 0.04 0.02 0.1 0.06 0.1 c0.1 0.04 0.18 -0.02 0.26 -0.06 z M24.02 9.6 c0.12 0.04 0.18 -0.02 0.18 -0.14 c-0.02 -0.08 -0.08 -0.14 -0.16 -0.12 c-0.04 0 -0.1 0.02 -0.12 0.06 c-0.02 0.02 -0.02 0.08 -0.02 0.12 c-0.18 0 -0.3 0.1 -0.42 0.2 c-0.06 0.02 -0.08 0.12 -0.04 0.16 l0.34 0.3 c0.02 0.02 0.08 0 0.08 -0.02 c0.04 -0.12 0.08 -0.24 0.1 -0.36 c0 -0.08 -0.04 -0.18 -0.06 -0.26 z M23.560000000000002 9.38 c0 0.02 0.02 0.04 0.02 0.04 c0.04 0 0.06 -0.02 0.08 -0.02 c0 -0.02 -0.02 -0.04 -0.04 -0.06 c-0.02 0.02 -0.04 0.04 -0.06 0.04 z M29.64 9.54 l0.1 -0.06 l-0.12 -0.12 c-0.02 0.04 -0.04 0.06 -0.04 0.08 c0 0.04 0.04 0.06 0.06 0.1 z M24.580000000000002 9.44 c-0.04 0.02 -0.08 0.04 -0.1 0.08 c-0.02 0.06 0.04 0.1 0.08 0.1 s0.1 0 0.14 -0.02 c0.02 0 0.04 -0.04 0.04 -0.06 s0 -0.06 -0.02 -0.08 l-0.1 -0.04 c-0.02 0 -0.04 0 -0.04 0.02 z M25.64 9.48 c0 0.02 -0.02 0.06 0 0.1 c0.06 0.1 0.14 0.16 0.28 0.14 c0.02 -0.02 0.06 -0.04 0.08 -0.08 c0 -0.04 -0.04 -0.08 -0.06 -0.1 l-0.22 -0.1 c-0.02 0 -0.06 0.02 -0.08 0.04 z M25.18 9.76 c0.04 -0.06 0.06 -0.1 -0.02 -0.16 c-0.04 -0.04 -0.1 -0.08 -0.16 -0.04 c-0.02 0.02 -0.04 0.08 -0.04 0.12 c-0.02 0.04 0 0.1 0 0.14 c-0.12 -0.08 -0.26 -0.12 -0.4 -0.1 c-0.04 0.02 -0.1 0.06 -0.08 0.1 c0.04 0.1 0.06 0.16 0.02 0.26 c-0.04 0.06 0.04 0.14 0.1 0.12 c0.08 -0.04 0.16 -0.08 0.24 -0.14 c0.1 -0.06 0.12 -0.14 0.12 -0.24 c0.08 0 0.16 0 0.22 -0.06 z M31.92 9.6 l0.02 -0.02 l-0.02 -0.02 s-0.02 0 -0.02 0.02 c0 0 0 0.02 0.02 0.02 z M31.16 9.66 c-0.02 0.02 -0.04 0.04 -0.04 0.06 s0.02 0.04 0.04 0.06 c0 -0.02 0.02 -0.04 0.02 -0.08 c0 0 0 -0.02 -0.02 -0.04 z M24.02 9.96 c0 0.02 0.02 0.02 0.02 0.02 c0.02 0.02 0.02 0 0.04 -0.02 c-0.02 0 -0.02 -0.02 -0.04 -0.02 z M24.34 9.98 c0 0 0.02 0 0.02 -0.02 l-0.02 -0.02 c-0.04 0 -0.04 0.02 0 0.04 z M31.08 10.02 c-0.02 0 -0.02 0.04 -0.04 0.04 c0.02 0.02 0.04 0.04 0.06 0.04 s0.04 -0.04 0.06 -0.04 c-0.02 -0.02 -0.04 -0.04 -0.08 -0.04 z M32 10.06 c0.02 0.02 0.04 0.04 0.08 0.04 c0.02 0 0.02 -0.04 0.04 -0.06 c-0.02 0 -0.04 -0.02 -0.08 -0.02 c-0.02 0 -0.02 0.04 -0.04 0.04 z M30.52 10.1 c-0.02 -0.02 0 -0.1 -0.06 -0.04 l0.06 0.04 c0.02 0.04 0.02 0.1 0.02 0.14 c0 0.02 0.02 0.04 0.04 0.02 c0 0 0.02 0 0.02 -0.02 c0.02 -0.08 0 -0.12 -0.08 -0.14 z M23.1 10.14 l-0.08 -0.02 c-0.02 0 -0.04 0.02 -0.04 0.04 c0.02 0.02 0.04 0.04 0.06 0.04 s0.04 -0.04 0.06 -0.06 z M31.86 10.42 l0 -0.04 c-0.04 -0.1 -0.16 -0.1 -0.24 -0.16 c0 0 -0.06 0.06 -0.08 0.1 c-0.02 0 0 0.06 0.02 0.06 c0.08 0.04 0.18 0.04 0.28 0.08 c0 -0.02 0.02 -0.02 0.02 -0.04 z M24.98 10.72 c0.02 0.04 0.04 0.04 0.06 0.02 c0 -0.02 -0.02 -0.02 -0.04 -0.04 c0 0.02 -0.02 0.02 -0.02 0.02 z M24.48 11.14 c0.04 0 0.06 -0.04 0.12 -0.08 c-0.06 -0.04 -0.1 -0.08 -0.14 -0.08 s-0.08 0.02 -0.06 0.08 c0 0.06 0.02 0.1 0.08 0.08 z M31.6 11.2 c0.02 0.04 0.04 0.04 0.06 0 c0 0 -0.02 0 -0.02 -0.02 c-0.02 0.02 -0.04 0.02 -0.04 0.02 z M30.380000000000003 11.38 c-0.04 0 -0.04 0.02 0 0.04 c0 0 0.02 0 0.02 -0.02 c0 0 0 -0.02 -0.02 -0.02 z M27.66 11.62 c-0.04 0.08 -0.02 0.16 0.04 0.22 c0.02 0.02 0.06 0.04 0.1 0.06 l0.04 -0.1 c0 -0.06 0 -0.12 -0.02 -0.18 c0 -0.02 -0.06 -0.04 -0.1 -0.06 c-0.02 0 -0.06 0.04 -0.06 0.06 z M24.36 12.16 l-0.04 0 l0.02 0.04 z M32.14 12.26 l-0.02 -0.02 c-0.02 0 -0.04 0.02 -0.04 0.02 c0.02 0.04 0.04 0.04 0.06 0 z M30.36 12.84 l0.06 0.04 c0.06 -0.04 0.12 -0.06 0.2 -0.1 c-0.04 -0.04 -0.06 -0.08 -0.08 -0.08 c-0.1 0 -0.14 0.06 -0.18 0.14 z M22.92 12.8 c0.02 -0.02 -0.02 -0.06 -0.02 -0.08 c-0.02 0.02 -0.04 0.04 -0.04 0.08 c0 0.02 0.02 0.04 0.04 0.06 c0 -0.02 0.02 -0.04 0.02 -0.06 z M31.5 13.219999999999999 c0.02 0.02 0.02 0.04 0.04 0.04 l0.02 -0.02 c0 -0.02 -0.02 -0.02 -0.02 -0.04 c-0.02 0 -0.02 0.02 -0.04 0.02 z M31.12 13.379999999999999 c-0.02 0 -0.08 0.04 -0.12 0.06 c0.04 0.1 0.06 0.18 0.12 0.26 c0.02 0.02 0.08 0.04 0.12 0.04 c0.02 -0.02 0.06 -0.08 0.06 -0.12 c0 -0.12 -0.06 -0.2 -0.18 -0.24 z M30.18 13.719999999999999 c0.02 0 0.02 -0.02 0.02 -0.02 l-0.2 -0.12 c-0.02 0.04 -0.04 0.06 -0.04 0.08 c0.02 0.1 0.16 0.14 0.22 0.06 z M31.6 13.64 l0.04 -0.04 c-0.02 0 -0.04 -0.02 -0.08 -0.02 l-0.04 0.04 z M32.120000000000005 13.58 c-0.02 0 -0.04 0.02 -0.04 0.02 c0.02 0.06 0.04 0.06 0.06 0.02 c0 -0.02 -0.02 -0.02 -0.02 -0.04 z M24.1 13.76 c-0.04 0.02 -0.06 0.04 -0.08 0.04 c0.04 0.04 0.08 0.08 0.12 0.14 c0.02 -0.06 0.04 -0.08 0.04 -0.1 c0 -0.06 -0.04 -0.08 -0.08 -0.08 z M29.04 13.82 c0 0 0.02 0 0.02 -0.02 l-0.02 -0.02 l-0.02 0.02 c0 0.02 0 0.02 0.02 0.02 z M25.98 14.48 c0.02 -0.02 0.04 -0.06 0.02 -0.08 c-0.02 -0.08 -0.06 -0.14 -0.1 -0.2 c0 -0.02 -0.02 -0.02 -0.02 -0.04 c-0.02 0 -0.04 0.02 -0.04 0.02 l-0.16 0.16 c-0.02 0.02 0 0.06 0.02 0.08 c0.06 0.04 0.14 0.06 0.2 0.08 c0.02 0.02 0.06 0 0.08 -0.02 z M23.7 14.34 c-0.02 -0.06 -0.06 -0.1 -0.08 -0.16 c-0.04 -0.02 -0.1 0 -0.1 0.04 l0 0.1 c0 0.06 0.02 0.08 0.12 0.04 c0.02 0 0.04 -0.02 0.06 -0.02 z M22.96 14.379999999999999 c0.06 0.12 0.18 0.18 0.42 0.14 l-0.06 0 c0.02 0 0.04 -0.02 0.08 -0.04 c-0.02 -0.02 -0.02 -0.06 -0.06 -0.08 c-0.08 -0.06 -0.18 -0.12 -0.26 -0.16 c-0.04 0 -0.1 0.02 -0.12 0.04 s-0.02 0.08 0 0.1 z M30.08 14.3 l0.04 0 l-0.02 -0.04 z M23.78 14.379999999999999 c-0.02 -0.02 -0.04 -0.04 -0.06 -0.04 c0 0.04 0 0.1 0.06 0.04 z M26.380000000000003 14.379999999999999 c-0.02 0 -0.02 -0.02 -0.02 -0.02 c-0.02 0 -0.04 0 -0.04 0.02 l0.02 0.02 c0.02 0 0.02 0 0.04 -0.02 z M26.66 14.48 c0 -0.02 0 -0.02 -0.02 -0.04 c-0.04 0.02 -0.04 0.04 0 0.06 z M28.380000000000003 14.440000000000001 c-0.06 0.02 -0.06 0.04 -0.02 0.06 c0.02 0 0.02 -0.02 0.04 -0.02 c-0.02 -0.02 -0.02 -0.04 -0.02 -0.04 z M23.88 14.559999999999999 c0 0 -0.02 0 -0.02 -0.02 c-0.02 0 -0.04 0.02 -0.04 0.02 c0.02 0.04 0.04 0.04 0.06 0 z M29.84 14.8 c0.08 0 0.18 -0.06 0.18 -0.14 c-0.02 -0.02 -0.04 -0.06 -0.08 -0.1 l-0.08 0 c-0.04 0.06 -0.08 0.1 -0.1 0.16 c-0.02 0.04 0.04 0.08 0.08 0.08 z M23.4 14.66 l-0.02 -0.02 c-0.04 0.02 -0.04 0.04 0 0.06 c0 0 0.02 -0.02 0.02 -0.04 z M26.12 14.719999999999999 c0.04 -0.02 0.08 -0.02 0.04 -0.08 c-0.02 0.02 -0.04 0.06 -0.04 0.08 z M31.380000000000003 14.92 c0.02 -0.04 0 -0.1 0 -0.14 c0 -0.02 -0.02 -0.02 -0.02 -0.04 c-0.1 0.04 -0.2 0.06 -0.3 0.1 c-0.02 0 -0.02 0.02 -0.02 0.02 c0 0.02 0.02 0.02 0.02 0.04 c0.08 0.02 0.16 0.02 0.22 0.06 c0.06 0.02 0.1 0 0.1 -0.04 z M22.82 14.86 c-0.02 -0.02 -0.04 -0.04 -0.06 -0.04 c-0.04 0 -0.06 0.02 -0.08 0.04 c0.02 0 0.04 0.04 0.06 0.04 c0.04 0 0.06 -0.02 0.08 -0.04 z M30.12 14.92 c0.02 -0.02 0 -0.06 -0.02 -0.08 c-0.02 0.02 -0.04 0.04 -0.04 0.06 s0.02 0.04 0.02 0.06 c0.02 0 0.04 -0.02 0.04 -0.04 z M30.5 15.059999999999999 c0 -0.02 -0.02 -0.04 -0.02 -0.04 c-0.04 0.02 -0.04 0.04 0 0.06 z M27.02 15.120000000000001 l-0.02 0.02 c0 0.02 0 0.04 0.02 0.04 l0.04 -0.04 c-0.02 0 -0.02 -0.02 -0.04 -0.02 z M24.64 15.24 c-0.02 -0.02 -0.04 -0.02 -0.08 -0.06 c-0.02 0.04 -0.06 0.06 -0.06 0.1 c-0.02 0.02 0 0.04 0.02 0.08 z M27.240000000000002 15.280000000000001 l0.08 -0.02 c-0.02 -0.02 -0.02 -0.06 -0.04 -0.06 s-0.06 0.02 -0.08 0.04 c0.02 0 0.02 0.04 0.04 0.04 z M30.54 15.48 c0.06 -0.04 0.16 -0.2 0.14 -0.26 c0 0 -0.02 -0.02 -0.04 -0.02 c-0.12 0.02 -0.2 0.1 -0.2 0.2 c0 0.04 0.04 0.06 0.04 0.08 l0.06 0 z M23.18 15.280000000000001 l0.04 -0.04 c-0.02 0 -0.02 -0.02 -0.04 -0.02 l-0.02 0.02 c0 0.02 0 0.04 0.02 0.04 z M25.94 15.24 c0.08 -0.04 0.06 0.02 0.08 0.06 z M31.240000000000002 15.34 l0.04 -0.04 c-0.02 -0.02 -0.02 -0.04 -0.04 -0.08 c0 0.02 -0.04 0.04 -0.04 0.04 c0.02 0.04 0.02 0.06 0.04 0.08 z M31.82 15.26 c0 0 0.02 0 0.02 -0.02 c0 0 0 -0.02 -0.02 -0.02 l-0.02 0.02 c0 0.02 0.02 0.02 0.02 0.02 z M27.84 15.440000000000001 c0.02 -0.04 0.04 -0.08 0.06 -0.1 c-0.02 -0.02 -0.02 -0.04 -0.04 -0.04 c-0.04 0.02 -0.08 0.02 -0.1 0.06 c-0.02 0 0 0.06 0 0.08 l0.08 0 z M26.98 15.4 c-0.02 0 -0.06 0.02 -0.08 0.04 c0.02 0 0.04 0.04 0.08 0.04 c0.02 0 0.04 -0.02 0.06 -0.04 c-0.02 -0.02 -0.04 -0.04 -0.06 -0.04 z M32.019999999999996 15.46 l0.02 -0.02 c0 -0.02 -0.02 -0.02 -0.02 -0.04 l-0.04 0.04 s0.02 0.02 0.04 0.02 z M28.42 15.58 c0 0.04 0 0.1 0.06 0.04 l-0.06 -0.04 c-0.04 -0.14 -0.14 -0.1 -0.24 -0.08 l-0.02 0.02 c0 0.02 0.02 0.04 0.02 0.04 c0.08 0 0.16 0.02 0.24 0.02 z M23.82 16.06 c0.06 -0.14 0.16 -0.26 0.32 -0.32 c0.02 0 0.02 -0.02 0.02 -0.02 c0 -0.02 0 -0.04 -0.02 -0.04 c-0.1 -0.1 -0.2 -0.14 -0.34 -0.06 c-0.06 0.04 -0.22 -0.04 -0.2 0.14 c0 0.06 -0.06 0.1 -0.08 0.16 s0.08 0.22 0.16 0.22 c0.06 0.02 0.1 -0.02 0.14 -0.08 z M24.68 16.04 c0.02 -0.2 -0.08 -0.34 -0.24 -0.44 c-0.04 -0.04 -0.14 0 -0.14 0.06 c-0.02 0.14 -0.02 0.28 -0.1 0.4 l-0.02 0 l-0.08 0 c-0.02 0.02 -0.06 0.04 -0.08 0.04 c0.02 0.02 0.02 0.04 0.04 0.04 s0.06 0 0.08 -0.02 c0.02 0 0.04 -0.04 0.04 -0.06 c0.14 0 0.26 0.02 0.38 0.08 c0.04 0.02 0.1 -0.04 0.12 -0.1 z M32.34 15.86 c0.02 -0.14 -0.04 -0.2 -0.16 -0.18 c-0.04 0 -0.08 0.02 -0.08 0.04 c-0.02 0.04 -0.02 0.08 0 0.12 c0 0.02 0.04 0.06 0.06 0.06 c0.04 0.02 0.08 0.06 0.12 0.04 s0.06 -0.06 0.06 -0.08 z M28.36 15.940000000000001 c0 0 0.04 -0.02 0.02 -0.02 c-0.04 -0.1 -0.12 -0.2 -0.24 -0.24 l-0.04 0 c-0.06 0.02 -0.06 0.04 -0.02 0.08 l0.18 0.18 c0.02 0.02 0.06 0 0.1 0 z M22.52 15.74 l0 -0.04 l-0.02 0.02 z M30.46 15.719999999999999 c0 0.04 0.02 0.04 0.04 0 l-0.02 -0.02 z M26.54 16.06 c0.02 -0.04 0.04 -0.08 0.04 -0.1 l-0.1 -0.16 c-0.12 0.02 -0.2 0.04 -0.3 0.08 c-0.02 0 -0.04 0.04 -0.04 0.06 c0.02 0.02 0.04 0.06 0.04 0.08 c0.02 0.12 0.02 0.28 0.18 0.28 c0.12 0 0.14 -0.16 0.18 -0.24 z M27.060000000000002 16.06 l0.08 -0.04 c0 -0.04 -0.02 -0.08 -0.04 -0.08 c-0.08 -0.06 -0.18 -0.1 -0.26 -0.14 c-0.02 0 -0.08 0.04 -0.1 0.08 c-0.06 0.04 0 0.08 0.02 0.1 c0.08 0.1 0.16 0.1 0.26 0.08 l0.04 0 z M23.04 15.96 c0.02 -0.02 0.04 -0.04 0.06 -0.04 c-0.02 -0.02 -0.04 -0.04 -0.06 -0.04 s-0.04 0.02 -0.08 0.04 c0.04 0 0.06 0.02 0.08 0.04 z M23.04 16.28 l0 -0.06 c0 -0.14 -0.2 -0.28 -0.34 -0.24 c-0.02 0 -0.04 0.02 -0.04 0.04 c0.04 0.12 0.08 0.26 0.14 0.38 c0.02 0.06 0.18 0.06 0.2 0 c0.02 -0.04 0.04 -0.08 0.04 -0.12 z M27.62 16.34 c0.06 0.02 0.12 -0.04 0.12 -0.12 s-0.04 -0.14 -0.1 -0.2 c0 -0.02 -0.02 -0.02 -0.04 -0.02 c-0.02 0.02 -0.04 0.04 -0.04 0.06 c-0.02 0.02 -0.02 0.06 -0.02 0.08 l0 0.1 c0.02 0.04 0.06 0.08 0.08 0.1 z M22.4 16.34 c0.02 0 0.04 -0.04 0.02 -0.06 c-0.02 -0.06 -0.06 -0.1 -0.12 -0.1 l-0.02 0.08 c0 0.06 0.06 0.1 0.12 0.08 z M23.48 16.5 c0.08 -0.08 0.02 -0.28 -0.1 -0.32 l-0.06 0.06 c-0.02 0.1 0.02 0.18 0.1 0.24 c0.02 0.02 0.06 0.02 0.06 0.02 z M26.64 16.7 c0 -0.02 0.04 -0.04 0.04 -0.06 s-0.02 -0.06 -0.04 -0.08 c-0.02 0.02 -0.04 0.04 -0.04 0.08 c0 0.02 0.02 0.04 0.04 0.06 z M32.38 16.68 c0 0.04 0.02 0.04 0.04 0 l-0.02 -0.02 z M28.26 17 c0.02 -0.02 0.02 -0.02 0.04 -0.02 c-0.02 -0.02 -0.02 -0.04 -0.02 -0.04 c-0.02 0 -0.02 0.02 -0.04 0.02 c0.02 0.02 0.02 0.02 0.02 0.04 z M26.92 18.04 c0.02 -0.02 0.04 -0.04 0.04 -0.06 s-0.02 -0.04 -0.04 -0.06 c0 0.02 -0.04 0.04 -0.04 0.06 s0.02 0.04 0.04 0.06 z M27.6 18.06 l0.02 -0.04 l-0.04 0 z M22.96 18.4 c0.02 0.04 0.04 0.04 0.06 0.02 c0 -0.02 -0.02 -0.02 -0.02 -0.04 c-0.02 0.02 -0.04 0.02 -0.04 0.02 z M24.14 18.62 c0 0 0.02 0 0.02 -0.02 c0 0 0 -0.02 -0.02 -0.02 l-0.02 0.02 z M23.46 19.3 c0.02 0 0.02 -0.02 0.04 -0.02 c-0.02 -0.02 -0.02 -0.02 -0.02 -0.04 l-0.04 0.04 c0.02 0 0.02 0.02 0.02 0.02 z M27.82 19.5 c0.04 0 0.06 -0.02 0.08 -0.02 c-0.02 -0.02 -0.02 -0.06 -0.04 -0.06 s-0.06 0.02 -0.08 0.04 z M24.54 19.78 l0 -0.04 l-0.04 0.02 z M45.44 19.48 c0.1 0.28 -0.08 0.5 -0.38 0.52 c-0.7 0 -1.4 -0.02 -2.12 0 c-0.16 0 -0.3 -0.1 -0.46 -0.12 c-0.02 0 -0.08 -0.06 -0.08 -0.1 c0 -0.46 0 -0.92 0.02 -1.38 c0 -0.06 0.04 -0.12 0.06 -0.18 c0 -0.04 0 -0.1 -0.02 -0.14 c-0.06 -0.1 -0.08 -0.2 0 -0.3 c0.06 -0.1 0.04 -0.22 0.02 -0.32 c-0.1 -0.36 -0.12 -0.7 -0.04 -1.08 c0.02 -0.1 -0.04 -0.18 0.04 -0.28 c0.04 -0.06 -0.06 -0.14 -0.06 -0.22 c-0.02 -0.1 -0.02 -0.2 0.04 -0.32 c0.02 -0.04 0.02 -0.12 0.04 -0.18 c0.02 0.02 0.06 0.02 0.08 0.04 c0.06 0.06 0.12 0.02 0.16 -0.04 c0.04 -0.04 0.02 -0.08 -0.02 -0.12 c-0.04 -0.02 -0.06 -0.08 -0.12 -0.02 c-0.04 0.04 -0.06 0.1 -0.1 0.14 c-0.02 -0.02 -0.08 -0.06 -0.08 -0.08 c0.06 -0.14 0.1 -0.26 0 -0.4 c-0.04 -0.04 0 -0.12 0 -0.18 c-0.02 -0.2 -0.02 -0.38 -0.02 -0.58 c0 -0.1 0 -0.22 -0.06 -0.32 c-0.02 -0.06 -0.02 -0.16 0 -0.22 c0.1 -0.2 0.06 -0.38 0.06 -0.58 c0 -0.06 -0.06 -0.12 -0.1 -0.2 c-0.04 -0.04 -0.14 -0.02 -0.16 0.02 c-0.06 0.14 -0.14 0.26 -0.12 0.42 c0.04 0.26 -0.14 0.52 -0.12 0.78 c-0.08 0.2 -0.16 0.42 -0.32 0.58 c-0.14 0.14 -0.12 0.14 0.02 0.3 l0.06 0.06 c0.06 0.08 0.08 0.14 0.02 0.22 c-0.08 0.06 -0.02 0.14 0 0.2 c0.02 0.02 0 0.06 -0.02 0.08 c-0.04 0.02 -0.1 0.02 -0.08 0.08 c0.04 0.08 0.06 0.14 0.04 0.22 c0 0.12 -0.02 0.14 -0.16 0.18 c-0.1 0.04 -0.14 0.1 -0.08 0.16 c0.14 0.12 0.18 0.26 0.06 0.42 c0 0.28 -0.08 0.56 -0.18 0.82 c-0.02 0.04 0 0.1 -0.02 0.14 c0 0.18 0.02 0.36 -0.02 0.52 c-0.06 0.16 -0.06 0.32 -0.08 0.48 c-0.06 0.16 -0.12 0.32 -0.16 0.48 c-0.02 0.18 -0.02 0.36 -0.02 0.54 c-0.02 0.12 0.04 0.28 -0.08 0.4 s-0.28 0.1 -0.42 0.16 c-0.06 0.02 -0.14 0 -0.2 0 l-0.48 0 c-0.2 0.02 -0.36 -0.04 -0.52 -0.16 c-0.1 -0.08 -0.12 -0.14 -0.12 -0.24 l0 -0.72 c0 -0.16 0.02 -0.32 -0.08 -0.46 c-0.02 -0.06 0 -0.14 0.02 -0.2 s0.02 -0.1 0 -0.16 c-0.08 -0.14 -0.14 -0.28 -0.14 -0.46 c0 -0.08 -0.04 -0.14 -0.06 -0.22 c-0.1 -0.36 -0.24 -0.72 -0.22 -1.12 c0 -0.1 -0.06 -0.2 -0.08 -0.3 c0 -0.04 0.02 -0.06 0.06 -0.04 s0.08 0.04 0.1 -0.02 s-0.02 -0.08 -0.08 -0.1 c-0.26 -0.1 -0.28 -0.1 -0.28 -0.36 c-0.02 -0.08 0.02 -0.1 0.1 -0.08 c0.02 0 0.06 0.04 0.08 0.04 c0.06 -0.02 0.12 -0.02 0.18 -0.06 c0.02 -0.02 0 -0.06 0.02 -0.12 c0.04 -0.06 0.1 -0.1 0.16 -0.14 c-0.1 -0.12 0.1 -0.26 -0.04 -0.36 c-0.02 -0.02 -0.02 -0.06 -0.04 -0.08 c-0.06 -0.02 -0.12 -0.02 -0.18 -0.06 c-0.1 -0.06 -0.18 -0.02 -0.24 0.04 c-0.08 0.08 -0.04 0.14 0 0.22 c0.02 0.02 0.02 0.06 0.02 0.08 c0 0.04 -0.02 0.06 -0.04 0.08 c-0.02 0 -0.08 0 -0.08 -0.02 c-0.06 -0.1 -0.1 -0.2 -0.14 -0.3 c-0.06 -0.22 -0.06 -0.46 -0.16 -0.68 c-0.02 -0.04 -0.02 -0.1 -0.02 -0.14 c0 -0.36 -0.02 -0.52 -0.12 -0.72 c-0.04 -0.04 -0.12 -0.04 -0.18 0 s-0.1 0.12 -0.1 0.2 c0.02 0.3 -0.04 0.6 0.04 0.9 l0.02 0.08 c-0.1 0.2 -0.04 0.42 -0.06 0.62 c-0.02 0.06 -0.02 0.12 -0.06 0.18 c-0.04 0.08 -0.04 0.14 0.02 0.22 c0.02 0.04 0.04 0.12 0.04 0.18 c0.02 0.14 -0.02 0.28 0.06 0.4 c0.02 0.04 0.02 0.08 0.02 0.1 c-0.1 0.14 -0.1 0.26 0 0.4 c0 0.22 0.02 0.44 -0.02 0.66 c-0.06 0.36 -0.06 0.34 0.02 0.78 c0.02 0.1 0 0.2 0 0.3 c0.02 0.1 -0.02 0.18 -0.04 0.26 c-0.02 0.1 0.06 0.2 0.04 0.28 c0 0.22 0.04 0.42 0.1 0.6 c0.04 0.1 0.1 0.2 0.08 0.28 c-0.06 0.1 -0.16 0.2 -0.26 0.28 c-0.14 0.1 -0.3 0.16 -0.48 0.16 c-0.16 -0.02 -0.3 -0.02 -0.44 -0.02 c-0.12 0 -0.26 0 -0.36 0.08 c-0.04 0.02 -0.08 0.02 -0.1 0 c-0.26 -0.14 -0.54 -0.06 -0.8 -0.06 c-0.16 0 -0.3 -0.04 -0.46 -0.12 c-0.08 -0.04 -0.14 -0.12 -0.14 -0.24 l0 -1.18 l0 -0.1 c0.14 -0.32 0.12 -0.64 0.04 -0.98 c-0.02 -0.08 0.06 -0.2 0.04 -0.26 c-0.1 -0.22 -0.08 -0.44 -0.08 -0.66 c0 -0.08 -0.04 -0.16 -0.06 -0.22 c-0.04 -0.1 0 -0.16 0.08 -0.2 c0.04 -0.02 0.06 -0.08 0.06 -0.1 c-0.12 -0.24 -0.08 -0.48 -0.08 -0.7 l0 -2.84 c0 -0.12 0.02 -0.24 -0.04 -0.36 s-0.04 -0.22 0 -0.32 c0.04 -0.12 0.04 -0.26 0.04 -0.38 l0 -0.62 c0 -0.06 0 -0.14 0.04 -0.18 c0.02 -0.04 0.1 -0.04 0.16 -0.06 c0.02 0 0.04 -0.02 0.04 -0.02 c0 -0.02 -0.02 -0.06 -0.02 -0.06 c-0.06 -0.02 -0.14 -0.02 -0.2 -0.04 c-0.04 -0.04 -0.1 -0.06 -0.08 -0.16 c0.08 -0.34 0.08 -0.46 0 -0.78 c-0.02 -0.06 -0.02 -0.12 0 -0.18 c0.04 -0.08 0.08 -0.16 0.04 -0.24 c-0.06 -0.16 -0.04 -0.32 0 -0.48 c0.04 -0.1 0.02 -0.22 -0.02 -0.34 s-0.04 -0.24 -0.06 -0.36 c0 -0.12 0.04 -0.22 0.14 -0.3 c0.02 -0.02 0.04 -0.1 0.04 -0.12 c-0.02 -0.04 -0.06 -0.06 -0.1 -0.08 l-0.04 -0.04 c0.02 -0.02 0.04 -0.04 0.06 -0.04 c0.02 -0.02 0.06 -0.02 0.1 -0.02 c0.04 -0.02 0.08 -0.04 0.04 -0.1 l-0.14 -0.18 c0.06 -0.02 0.14 -0.02 0.18 -0.06 c0.06 -0.04 0.2 -0.02 0.18 -0.16 c0 -0.08 -0.08 -0.06 -0.28 0.02 c-0.1 0.04 -0.08 0.12 -0.08 0.2 l-0.08 -0.06 c0 -0.24 -0.06 -0.48 0.02 -0.72 c0.04 -0.04 0 -0.08 0 -0.12 c-0.02 -0.24 -0.04 -0.48 -0.02 -0.7 c0 -0.12 0.1 -0.24 0.16 -0.34 c0.02 -0.04 0.08 -0.06 0.12 -0.06 c0.34 0 0.7 -0.08 1.04 0.06 c0.08 0.04 0.18 0 0.28 0.02 c0.14 0.02 0.3 -0.02 0.46 0.06 c0.08 0.06 0.2 -0.08 0.3 0.02 l0.32 -0.08 c0.08 0 0.18 0.06 0.26 0.04 c0.28 -0.1 0.58 -0.02 0.86 -0.02 c0.12 -0.02 0.2 0.06 0.2 0.2 c0.02 0.24 0.14 0.46 0.1 0.7 c0.14 0.22 0.06 0.5 0.16 0.74 c0.02 0.04 -0.04 0.1 -0.06 0.16 c-0.06 0.02 -0.12 0.06 -0.18 0.1 l-0.06 -0.18 c0 -0.02 -0.06 -0.02 -0.08 0 c-0.04 0 -0.04 0.04 -0.02 0.06 l0.16 0.12 c-0.04 0.08 -0.12 0.18 0.02 0.26 l0.16 0.12 c0 0.02 0 0.06 0.02 0.08 c0 0.04 0.02 0.06 0.04 0.08 l0.02 -0.02 c0 -0.04 0.02 -0.08 0 -0.1 s-0.06 -0.02 -0.08 -0.04 l0 -0.1 l0.06 -0.06 s0.04 0 0.04 0.02 l0.14 0.24 c0.16 0.38 0.2 0.8 0.3 1.18 c0 0.02 -0.04 0.06 -0.06 0.06 c-0.08 0.04 -0.12 0.1 -0.08 0.2 c0 0.04 0.02 0.08 0.08 0.04 c0.02 0 0.08 -0.02 0.08 0 c0.04 0.04 0.1 0.08 0.1 0.12 c0 0.14 0.08 0.3 0.1 0.44 s0.08 0.26 0.1 0.38 c0 0.14 0.1 0.22 0.2 0.3 c0.06 0.08 0.14 0.06 0.18 -0.02 c0.06 -0.12 0.1 -0.24 0.14 -0.36 c0.12 -0.28 0.2 -0.56 0.16 -0.86 c0 -0.12 0.02 -0.24 0.12 -0.32 c0.06 -0.04 0.02 -0.1 0 -0.16 c-0.04 -0.16 -0.02 -0.18 0.12 -0.24 c0.24 -0.1 0.48 -0.14 0.74 -0.04 c0.02 0.02 0.1 -0.02 0.12 -0.04 c0.08 -0.1 0.08 -0.28 0.02 -0.36 s-0.26 -0.14 -0.34 -0.1 l-0.56 0.24 c-0.06 0.02 -0.12 -0.06 -0.1 -0.12 c0.04 -0.12 0.08 -0.24 0.14 -0.34 c0 -0.04 0.06 -0.08 0.1 -0.08 c0.04 -0.02 0.08 0.02 0.12 0.04 c0.04 0 0.06 0.02 0.1 0.02 c0.12 -0.02 0.1 -0.18 0.24 -0.2 c0.02 0 0.04 -0.08 0.04 -0.12 s-0.02 -0.12 -0.04 -0.12 c-0.1 -0.02 -0.2 0 -0.28 0 l-0.02 0.08 c0.06 0.1 -0.04 0.14 -0.1 0.16 c-0.02 0.02 -0.1 -0.02 -0.12 -0.04 c-0.02 -0.04 0 -0.1 0 -0.16 c0 -0.04 -0.02 -0.1 0 -0.14 c0.14 -0.22 0.04 -0.5 0.16 -0.74 c0.06 -0.14 0.02 -0.3 0.12 -0.44 c-0.04 -0.18 0.08 -0.3 0.1 -0.46 c0.02 -0.12 0.1 -0.2 0.24 -0.2 c0.08 0 0.18 0 0.28 0.02 c0.04 0 0 0.04 0 0.06 c-0.02 0.14 0.1 0.24 0.18 0.2 c0.06 -0.04 0.06 -0.1 0.04 -0.18 c-0.04 -0.08 -0.04 -0.1 0.04 -0.1 c0.12 0 0.12 0.02 0.1 0.12 c0 0.04 0 0.1 0.02 0.12 c0.08 0.06 0.16 0.1 0.24 0.12 c0.02 0.02 0.08 -0.02 0.08 -0.04 c0.02 -0.08 0.02 -0.14 0.02 -0.22 c0.04 0 0.1 0 0.14 -0.02 c0.14 0 0.26 -0.14 0.4 0 c0.02 0 0.08 0 0.1 -0.02 c0.14 -0.1 0.3 -0.06 0.46 -0.06 c0.1 0 0.14 0.04 0.16 0.14 c0.02 0.14 0.06 0.16 0.18 0.14 c0.16 0 0.24 -0.06 0.24 -0.16 c0 -0.06 -0.04 -0.12 0.06 -0.12 c0.24 0 0.48 -0.06 0.7 0.06 c0.22 -0.12 0.22 0.12 0.32 0.18 c0.02 0 0 0.08 0 0.08 c-0.06 0.06 -0.14 0.1 -0.2 0.14 c-0.02 0.02 -0.02 0.06 -0.02 0.08 c0.02 0.02 0.06 0.04 0.08 0.04 l0.18 -0.06 c0.08 -0.04 0.14 -0.02 0.16 0.02 c0.02 0.08 0 0.18 -0.06 0.2 s-0.12 0.02 -0.14 0.04 c-0.08 0.1 -0.3 0.12 -0.18 0.32 l-0.12 0.14 c-0.04 0.04 -0.02 0.08 0.04 0.1 c0.12 0 0.16 -0.02 0.18 -0.1 c0.02 -0.02 0 -0.06 0.02 -0.1 c0.02 -0.08 0.12 -0.1 0.18 -0.04 c0.12 0.1 0.1 0.24 0.08 0.36 c0 0.02 -0.04 0.06 -0.08 0.06 l-0.24 0 c-0.04 0.02 -0.1 0.06 -0.16 0.08 c-0.06 0.04 -0.04 0.1 0 0.16 c0.12 0.1 0.24 0.06 0.36 0.06 c0.1 0.02 0.12 0.04 0.08 0.12 c-0.04 0.06 -0.02 0.12 0.02 0.18 c0.02 0.06 0.04 0.14 0.02 0.18 c-0.12 0.26 -0.06 0.54 -0.08 0.8 l0 0.24 c-0.02 0.04 -0.06 0.1 -0.08 0.1 c-0.2 -0.02 -0.22 0.16 -0.3 0.28 c-0.06 0.1 0.02 0.2 0.16 0.22 l0.08 0 c0.08 0 0.14 0.02 0.14 0.1 l0 0.58 c0 0.08 0 0.16 -0.04 0.24 c-0.1 0.24 -0.08 0.48 0 0.74 c0.04 0.08 0.04 0.18 0.04 0.28 l0 1.44 c0 0.08 -0.02 0.14 -0.12 0.18 c-0.02 0 -0.04 0.06 -0.02 0.06 c0.16 0.14 0.14 0.34 0.14 0.52 l0 0.96 c0 0.12 0.08 0.24 0.06 0.32 c-0.04 0.12 -0.08 0.22 -0.06 0.32 c0.04 0.2 -0.08 0.3 -0.22 0.38 c-0.04 0.02 -0.06 0.08 0 0.12 c0.02 0.02 0.06 0.04 0.1 0.04 s0.06 -0.04 0.1 -0.04 c0.02 0.02 0.08 0.04 0.1 0.08 c0.02 0.18 0.04 0.38 -0.14 0.52 c-0.04 0.04 -0.04 0.12 -0.02 0.18 c0 0.08 0.06 0.14 0.08 0.22 c0.08 0.18 0.1 0.36 0.1 0.56 l0 2.06 c0 0.18 0 0.36 0.06 0.56 z M42.339999999999996 5.16 c0.06 -0.04 0.04 0.02 0.06 0.06 z M45.36 5.24 c-0.02 0.06 -0.04 0.06 -0.06 0 c0 -0.02 0 -0.06 0.02 -0.08 l0.02 0 c0.02 0.04 0.02 0.06 0.02 0.08 z M35.54 5.32 c0 0.02 -0.02 0.02 -0.02 0.02 c0 0.04 0.02 0.06 0.04 0.02 c0 0 -0.02 -0.02 -0.02 -0.04 z M44.6 5.32 c-0.06 0 -0.08 0.04 -0.08 0.1 c0 0.04 0.04 0.08 0.08 0.06 c0.04 0 0.08 -0.04 0.12 -0.08 c-0.06 -0.04 -0.08 -0.08 -0.12 -0.08 z M38.5 5.34 l-0.02 0.08 c0 0.02 0.02 0.04 0.04 0.04 l0.04 -0.06 z M35.019999999999996 5.82 c0.04 0 0.06 -0.02 0.08 -0.04 c0 0.1 0.02 0.18 0.12 0.24 c0 0.02 0.02 0.02 0.04 0.02 c0 -0.02 0.02 -0.04 0.02 -0.08 c-0.02 -0.1 -0.08 -0.14 -0.18 -0.18 c0.04 -0.08 0.06 -0.16 0.1 -0.26 c0.02 -0.06 -0.06 -0.14 -0.14 -0.12 c-0.06 0 -0.14 0.02 -0.14 0.1 c0 0.1 -0.02 0.22 0 0.32 c0.02 0.06 0.06 0.04 0.1 0 z M44.12 5.52 c-0.06 -0.02 -0.08 0.02 -0.08 0.08 s0.04 0.08 0.1 0.08 l0.08 0 l0 -0.08 c0 -0.06 -0.04 -0.08 -0.1 -0.08 z M36.519999999999996 5.52 l-0.04 0.06 c0.02 0 0.02 0 0.04 -0.02 l0 -0.04 z M37.839999999999996 5.52 l-0.02 0.02 c0 0.02 0 0.04 0.02 0.04 c0 0 0.02 -0.02 0.02 -0.04 c0 0 0 -0.02 -0.02 -0.02 z M43.12 5.52 l-0.02 0.02 c0 0.04 0.02 0.04 0.04 0 c0 0 0 -0.02 -0.02 -0.02 z M36.32 5.619999999999999 c-0.02 0 -0.04 0.02 -0.04 0.02 c0 0.02 0.02 0.04 0.04 0.04 c0.06 0.02 0.12 -0.02 0.12 -0.08 c-0.04 0 -0.08 0 -0.12 0.02 z M44.519999999999996 5.699999999999999 c-0.02 0.04 0 0.1 0.02 0.14 c0 0.02 0.1 0.04 0.12 0.02 l0.06 -0.12 c-0.02 -0.02 -0.02 -0.04 -0.02 -0.06 c-0.02 -0.04 -0.04 -0.1 -0.1 -0.06 c-0.04 0 -0.08 0.04 -0.08 0.08 z M36.019999999999996 5.619999999999999 c-0.02 0.02 -0.04 0.04 -0.04 0.06 c0 0.04 0.02 0.06 0.04 0.08 c0 -0.02 0.02 -0.04 0.04 -0.06 c-0.02 -0.04 -0.02 -0.06 -0.04 -0.08 z M37.46 5.619999999999999 c-0.02 0 -0.04 0.02 -0.04 0.02 c0 0.02 0.02 0.02 0.04 0.04 c0 -0.02 0.02 -0.02 0.02 -0.04 z M36.82 5.699999999999999 c-0.02 0 -0.02 0.02 -0.04 0.02 l0.04 0.06 c0.04 0 0.06 -0.04 0.08 -0.04 c-0.04 -0.02 -0.06 -0.04 -0.08 -0.04 z M44.3 5.74 c-0.02 -0.02 -0.06 -0.04 -0.08 -0.04 c0.02 0.04 0.02 0.08 0.08 0.04 z M41.98 5.720000000000001 c-0.02 0 -0.02 0.02 -0.04 0.04 l0.04 0 l0.02 -0.02 z M43.48 6.08 l0.04 -0.06 c0 -0.02 -0.02 -0.04 -0.04 -0.04 c-0.08 -0.02 -0.14 0 -0.2 -0.08 c-0.1 -0.14 -0.12 -0.14 -0.22 -0.06 c-0.16 0.16 -0.32 0.2 -0.5 0.08 c-0.04 -0.04 -0.08 -0.04 -0.14 -0.04 c-0.04 -0.02 -0.1 0.04 -0.08 0.08 c0.06 0.18 0.12 0.22 0.32 0.22 c0.02 0 0.12 0 0.18 -0.04 c0.1 -0.06 0.24 -0.06 0.36 -0.06 l0.28 0 z M35.519999999999996 5.84 c-0.02 0 0 0.02 0.02 0.02 l0.02 -0.02 c0 -0.02 -0.02 -0.02 -0.02 -0.04 c-0.02 0.02 -0.02 0.02 -0.02 0.04 z M36.28 5.9 c-0.1 -0.02 -0.2 0.08 -0.2 0.18 c0 0.04 0.06 0.06 0.06 0.08 c0.14 -0.02 0.22 -0.12 0.2 -0.22 c0 -0.02 -0.04 -0.04 -0.06 -0.04 z M36.48 5.92 c0 0.02 -0.02 0.04 -0.02 0.08 l0.04 0.04 c0.02 -0.02 0.02 -0.04 0.04 -0.08 c-0.02 0 -0.04 -0.02 -0.06 -0.04 z M37.86 6.48 l-0.06 0.06 c0 0.06 0.04 0.1 0.08 0.1 c0.04 0.02 0.1 0.02 0.18 0.02 c0.04 -0.02 0.14 -0.02 0.18 -0.06 c0.12 -0.16 0.18 -0.36 0.22 -0.56 c0 -0.02 -0.02 -0.04 -0.04 -0.04 s-0.06 -0.02 -0.08 0 c-0.04 0 -0.06 0.04 -0.06 0.06 c0 0.14 -0.04 0.2 -0.2 0.2 c-0.02 0 -0.06 0.04 -0.06 0.04 c0.1 0.24 -0.12 0.12 -0.16 0.18 z M38.62 6 c-0.02 0 -0.06 0.06 -0.06 0.1 c0 0.18 0.14 0.24 0.24 0.32 c0 0.02 0.02 0 0.04 -0.02 l0 -0.04 c-0.04 -0.1 -0.06 -0.22 -0.1 -0.32 c-0.02 -0.02 -0.08 -0.06 -0.12 -0.04 z M35.44 6.119999999999999 c-0.02 0.02 -0.04 0.04 -0.04 0.06 s0.04 0.04 0.04 0.06 c0.02 -0.02 0.02 -0.06 0.04 -0.08 z M35.68 6.359999999999999 c-0.08 0 -0.16 0 -0.22 0.08 c-0.04 0.04 -0.04 0.1 0 0.1 c0.02 0 0.06 0.02 0.08 0 l0.14 -0.16 c0.02 0 0.04 0 0.06 -0.02 c0.04 0 0.06 -0.02 0.1 -0.04 c-0.02 -0.04 -0.04 -0.08 -0.08 -0.1 c-0.02 -0.04 -0.06 -0.04 -0.06 0 c-0.02 0.04 -0.02 0.1 -0.02 0.14 z M43.08 6.5600000000000005 c0.04 0.1 0.08 0.18 -0.06 0.22 c0 0 0 0.06 0.02 0.06 l0.24 0.16 c0.04 0.02 0.08 -0.02 0.08 -0.06 l0 -0.14 c0 -0.08 0.02 -0.14 0 -0.2 l-0.12 -0.3 c-0.02 -0.02 -0.06 -0.02 -0.1 -0.02 c-0.02 0 -0.06 0.04 -0.06 0.06 c0 0.08 -0.02 0.16 0 0.22 z M44.04 6.640000000000001 l0.18 0 l0 0.02 c0 0.04 0 0.06 0.02 0.08 c0.02 0.1 0.1 0.12 0.16 0.06 l0.06 -0.06 c0.06 -0.06 0.06 -0.14 0 -0.16 l-0.12 0 c-0.04 0.02 -0.08 0.04 -0.12 0.08 c0.04 -0.14 -0.08 -0.24 -0.12 -0.34 c0 -0.02 -0.02 -0.02 -0.02 -0.02 c-0.02 0 -0.04 0.02 -0.04 0.04 l0 0.3 z M35.12 6.460000000000001 c0.02 0.04 0.04 0.06 0.1 0.12 c0.02 -0.06 0.06 -0.1 0.06 -0.14 s-0.04 -0.08 -0.1 -0.06 c-0.04 0 -0.08 0.02 -0.06 0.08 z M41.9 6.539999999999999 c-0.16 -0.02 -0.18 -0.02 -0.14 0.06 c0.02 0.06 0.02 0.12 0 0.18 c-0.04 0.16 0.06 0.26 0.22 0.26 c0.04 0 0.12 -0.02 0.1 -0.08 c-0.06 -0.12 0.06 -0.2 0.08 -0.3 c0 -0.04 0 -0.08 -0.02 -0.12 c-0.02 -0.06 -0.08 -0.06 -0.14 -0.02 c-0.04 0.02 -0.1 0.02 -0.1 0.02 z M35.48 7.6 c-0.08 0 -0.12 0 -0.18 0.02 c-0.04 0 -0.1 0.02 -0.06 0.08 c0.1 0.16 0.16 0.36 0.3 0.48 c0.08 0.1 0.14 0.12 0.28 0.02 c0.06 -0.06 0.14 -0.14 0.24 -0.06 c0.02 0 0.08 0.02 0.08 0 c0.04 -0.12 0.14 -0.2 0.12 -0.34 c0.1 0.04 0.18 0.16 0.3 0.08 c0.04 0 0.08 -0.06 0.06 -0.1 c-0.02 -0.06 -0.06 -0.1 -0.1 -0.14 c-0.06 -0.1 -0.08 -0.18 -0.04 -0.28 c0.08 -0.12 0 -0.2 -0.08 -0.22 c-0.16 -0.06 -0.22 -0.14 -0.24 -0.3 c-0.02 -0.14 -0.14 -0.22 -0.26 -0.28 c-0.06 -0.04 -0.18 0 -0.2 0.06 c-0.04 0.08 -0.08 0.14 -0.1 0.22 s0.08 0.08 0.12 0.12 c0.06 0.08 0.1 0.16 0.14 0.24 l-0.02 0.2 c-0.02 0.08 -0.12 0.1 -0.18 0.04 c-0.04 -0.04 -0.06 -0.08 -0.1 -0.1 c-0.04 0 -0.1 0 -0.12 0.02 c-0.04 0.02 -0.02 0.08 -0.02 0.12 c0.02 0.06 0.04 0.08 0.06 0.12 z M38.56 6.640000000000001 l0.06 -0.04 c-0.02 0 -0.04 -0.04 -0.06 -0.04 s-0.04 0.02 -0.06 0.04 z M43.04 7.18 c0.02 -0.02 0.04 -0.08 0.02 -0.08 c-0.14 -0.16 -0.26 -0.32 -0.38 -0.5 c-0.02 -0.02 -0.06 -0.02 -0.08 -0.04 c-0.02 0 -0.04 0 -0.04 0.02 c-0.02 0.02 -0.06 0.04 -0.04 0.06 c0 0.06 0.04 0.12 0.06 0.18 c0.08 0.18 0.24 0.28 0.36 0.42 c0.06 -0.04 0.08 -0.04 0.1 -0.06 z M43.6 6.640000000000001 c0 -0.02 0.02 -0.02 0.02 -0.04 c0 0 0 -0.02 -0.02 -0.02 l-0.02 0.02 c0 0.02 0.02 0.02 0.02 0.04 z M37.4 6.66 c-0.04 0 -0.08 0.04 -0.06 0.08 c0 0.04 0.04 0.08 0.08 0.12 l0.08 -0.12 c0 -0.06 -0.02 -0.08 -0.1 -0.08 z M44.019999999999996 6.66 c-0.04 0 -0.1 0 -0.04 0.06 c0.02 -0.02 0.04 -0.04 0.04 -0.06 z M42.42 6.880000000000001 c0 0.02 0.02 0.04 0.02 0.04 c0.02 0 0.02 -0.02 0.04 -0.02 c-0.02 -0.02 -0.02 -0.02 -0.02 -0.04 c-0.02 0.02 -0.04 0.02 -0.04 0.02 z M43.7 6.859999999999999 c0 0.02 -0.02 0.02 -0.02 0.02 c0 0.04 0.02 0.04 0.04 0.02 c0 -0.02 -0.02 -0.02 -0.02 -0.04 z M37.92 6.880000000000001 c-0.06 0 -0.14 0.14 -0.12 0.18 c0.06 0.12 0.14 0.2 0.26 0.26 l0.1 -0.04 s0.02 -0.04 0 -0.04 c-0.04 -0.14 -0.08 -0.28 -0.2 -0.36 l-0.04 0 z M39.019999999999996 6.98 c-0.08 0.06 -0.06 -0.02 -0.08 -0.04 c0.02 0.02 0.04 0.02 0.08 0.04 z M36.76 7.1 c0.08 0.08 0 0.14 -0.02 0.2 c0 0.04 0.04 0.08 0.06 0.1 c0.04 0 0.08 0 0.08 -0.02 c0.04 -0.1 0.1 -0.18 0.12 -0.28 c0 -0.04 -0.06 -0.12 -0.12 -0.14 c-0.02 -0.02 -0.08 0 -0.1 0.02 c-0.04 0.02 -0.04 0.1 -0.02 0.12 z M35.56 7.08 c-0.02 0 -0.04 -0.04 -0.06 -0.04 c-0.04 0 -0.06 0.02 -0.08 0.04 l0.06 0.04 c0.04 -0.02 0.06 -0.02 0.08 -0.04 z M44.72 7.18 c0 -0.06 -0.04 -0.12 -0.1 -0.14 c-0.06 0 -0.18 0.08 -0.18 0.12 c0 0.06 0.08 0.14 0.16 0.14 c0.06 0.02 0.1 -0.04 0.12 -0.12 z M37.199999999999996 7.140000000000001 c-0.02 0 -0.06 0.04 -0.04 0.04 c0.02 0.12 0.2 0.2 0.3 0.12 c0 -0.02 0 -0.02 0.02 -0.04 c-0.02 -0.02 -0.02 -0.02 -0.02 -0.04 c-0.08 -0.08 -0.16 -0.12 -0.26 -0.08 z M44.14 7.34 l0.08 -0.12 c0 -0.06 -0.02 -0.08 -0.08 -0.08 c-0.08 0 -0.12 0.04 -0.1 0.1 c0.02 0.04 0.06 0.06 0.1 0.1 z M35.22 7.18 l0.02 0.02 c0.02 0 0.02 -0.02 0.04 -0.02 c-0.02 0 -0.02 -0.02 -0.02 -0.02 c-0.02 0 -0.04 0 -0.04 0.02 z M41.68 7.16 c0 0 -0.02 0 -0.02 0.02 c0 0.04 0.02 0.04 0.04 0 c0 0 0 -0.02 -0.02 -0.02 z M37.14 7.460000000000001 c-0.04 0.02 0.02 0.12 0.12 0.16 c0.06 0.04 0.12 0.06 0.18 0.08 c0.04 0.02 0.12 0 0.12 -0.02 c0.04 -0.14 0.2 -0.16 0.28 -0.26 c0 -0.02 0 -0.04 0.02 -0.06 l-0.04 -0.04 c-0.08 0.02 -0.16 0 -0.18 0.04 c-0.1 0.1 -0.2 0.14 -0.34 0.06 c-0.02 -0.02 -0.1 0.02 -0.16 0.04 z M42.06 7.68 c0.02 0.02 0.08 0.02 0.12 0.04 c0.04 -0.02 0.1 -0.04 0.12 -0.08 c0.04 -0.08 -0.02 -0.24 -0.12 -0.28 c-0.06 -0.04 -0.1 0.04 -0.14 0.08 c-0.06 0.06 -0.1 0.06 -0.12 -0.04 c-0.04 -0.08 -0.12 -0.08 -0.2 -0.06 c-0.08 0 -0.1 0.08 -0.1 0.14 c0.02 0.08 0.02 0.14 0.06 0.22 c0.02 0.08 0.1 0.08 0.18 0.02 c0.06 -0.06 0.1 -0.12 0.2 -0.04 z M36.22 7.380000000000001 c0 0 -0.02 0.02 -0.04 0.02 s-0.04 -0.02 -0.08 -0.02 c0.02 -0.02 0.02 -0.04 0.02 -0.04 z M43.2 7.380000000000001 c0 0 0 0.02 0.02 0.02 l0.02 -0.02 c0 -0.02 -0.02 -0.02 -0.02 -0.04 c0 0.02 -0.02 0.02 -0.02 0.04 z M38.3 7.48 c0.02 -0.02 0.04 -0.04 0.06 -0.04 c0 -0.04 -0.02 -0.06 -0.02 -0.08 c-0.02 0 -0.06 0.02 -0.06 0.04 z M43.66 7.4399999999999995 c0 0 0.04 0.02 0.04 0.04 c0.02 -0.02 0.02 -0.06 0.04 -0.08 l-0.06 -0.04 c0 0.02 -0.02 0.04 -0.02 0.08 z M44.839999999999996 7.460000000000001 c-0.02 0.02 -0.04 0.04 -0.04 0.08 c0.02 0 0.04 0.02 0.06 0.04 c0 -0.02 0.02 -0.04 0.04 -0.08 z M41.42 7.6 c0.04 0 0.06 -0.02 0.08 -0.02 c-0.02 -0.02 -0.02 -0.06 -0.04 -0.06 s-0.06 0.02 -0.1 0.04 c0.04 0.02 0.04 0.04 0.06 0.04 z M35.5 7.6 l-0.02 0.02 l0 -0.02 l0.02 0 z M35.56 7.66 c-0.06 0.04 -0.06 -0.02 -0.06 -0.06 z M38.239999999999995 7.640000000000001 c-0.02 0 -0.04 -0.02 -0.04 -0.02 c-0.06 0 -0.12 0 -0.18 0.02 l-0.02 0.08 c0 0.02 0.04 0.06 0.06 0.06 c0.06 0.04 0.12 0 0.14 -0.06 c0.02 -0.02 0.02 -0.04 0.04 -0.08 z M35.82 7.859999999999999 c0 0 -0.04 0 -0.04 -0.02 c-0.04 -0.04 -0.06 -0.1 -0.08 -0.16 c0 0 0 -0.02 0.02 -0.04 l0.04 0 c0.02 0.06 0.06 0.1 0.1 0.16 z M40.9 7.76 c0.02 0 0.04 -0.02 0.04 -0.04 s0 -0.04 -0.02 -0.08 c-0.02 0.02 -0.04 0.04 -0.04 0.06 s0.02 0.04 0.02 0.06 z M42.72 7.76 l0.02 0.02 c0.06 0.04 0.12 0 0.14 -0.06 c-0.02 -0.04 -0.04 -0.06 -0.04 -0.08 z M37.78 7.800000000000001 c0 -0.02 -0.02 -0.04 -0.04 -0.08 c0 0.04 -0.04 0.06 -0.04 0.08 s0.02 0.04 0.04 0.06 c0.02 -0.02 0.04 -0.04 0.04 -0.06 z M44.62 7.9399999999999995 c0.02 -0.02 0.06 -0.04 0.08 -0.04 c0.04 0.02 0.06 0.08 0.1 0.08 c0.02 0 0.06 -0.04 0.08 -0.06 s0.02 -0.04 0 -0.04 c-0.02 -0.06 -0.06 -0.04 -0.1 -0.02 c-0.02 0.02 -0.04 0.02 -0.08 0.04 l-0.06 -0.12 c-0.06 -0.08 -0.1 -0.06 -0.16 0 c-0.02 0.04 -0.06 0.08 0 0.12 c0.04 0.04 0.08 0.1 0.14 0.04 z M36.18 7.76 c0.08 -0.06 0.06 0.02 0.08 0.04 c-0.02 -0.02 -0.04 -0.02 -0.08 -0.04 z M42.22 8.04 c0.08 0.1 0.14 0.18 0.28 0.14 c0.02 0 0.06 -0.04 0.08 -0.06 c-0.02 -0.04 -0.02 -0.08 -0.04 -0.1 c-0.06 -0.04 -0.12 -0.08 -0.2 -0.1 c-0.04 -0.02 -0.08 0.02 -0.12 0.04 l0 0.08 z M34.839999999999996 8.04 c0.04 0.04 0.08 0.08 0.14 0.12 c0 -0.04 0.02 -0.06 0.04 -0.1 c0 -0.1 -0.04 -0.14 -0.08 -0.12 s-0.06 0.06 -0.1 0.1 z M41.96 8.16 c0.02 0 0.02 0 0.04 -0.02 c-0.02 0 -0.02 -0.02 -0.02 -0.02 c-0.02 0 -0.02 0.02 -0.04 0.02 c0.02 0 0.02 0.02 0.02 0.02 z M38.72 9.16 c0.16 0.04 0.26 -0.1 0.36 -0.22 c0.04 -0.04 0.06 -0.1 0.06 -0.18 c0.02 -0.1 0.14 -0.08 0.16 -0.14 c0.02 -0.04 0.04 -0.1 0.04 -0.14 c0 -0.1 -0.06 -0.18 -0.1 -0.26 c-0.04 -0.1 -0.1 -0.12 -0.14 -0.02 c-0.1 0.16 -0.18 0.28 -0.4 0.3 c-0.02 0 -0.06 0.1 -0.1 0.14 c-0.08 0.02 -0.16 0.02 -0.24 0.04 c-0.1 0.02 -0.18 0.08 -0.18 0.18 c0 0.16 -0.06 0.28 -0.1 0.42 l0 0.08 c0.02 0.02 0.02 0.04 0.04 0.04 c0 0.02 0.02 0 0.04 0 l0.18 -0.2 c-0.1 -0.14 0.04 -0.2 0.12 -0.28 c0 0 0.04 0 0.06 -0.02 c0.02 0.04 0.02 0.06 0.02 0.1 c-0.02 0.06 -0.08 0.14 0.06 0.14 c0.02 0 0.06 0 0.12 0.02 z M37.1 8.4 c0.02 -0.12 -0.1 -0.22 -0.2 -0.2 c-0.02 0 -0.04 0.02 -0.04 0.02 c-0.04 0.06 -0.02 0.14 0.06 0.2 c0.06 0.06 0.14 0.06 0.18 0.02 l0 -0.04 z M35.24 8.74 c0.02 0 0.04 0 0.04 -0.02 c0.12 -0.12 0.26 -0.16 0.44 -0.16 c0 0 0.02 -0.02 0.02 -0.04 c0.02 0 0 -0.02 0 -0.04 c-0.14 -0.08 -0.26 -0.18 -0.38 -0.28 c-0.02 0 -0.06 0.04 -0.08 0.06 c-0.12 0.1 -0.08 0.26 -0.14 0.38 c0 0.02 0.06 0.08 0.1 0.1 z M42.9 8.46 c0.02 -0.02 0.04 -0.06 0.08 -0.08 l-0.04 -0.06 c-0.04 0.02 -0.08 0.04 -0.1 0.06 s-0.02 0.04 -0.02 0.04 c0.02 0.02 0.06 0.04 0.08 0.04 z M41.519999999999996 8.48 c0.02 -0.06 -0.02 -0.1 -0.06 -0.08 c-0.04 0 -0.08 0.02 -0.14 0.06 c0.06 0.04 0.08 0.08 0.12 0.1 s0.08 -0.02 0.08 -0.08 z M37.22 8.48 c0.02 0.02 0.04 0.06 0.08 0.08 c0.02 0 0.04 -0.02 0.08 -0.04 c0 0 0 -0.02 -0.02 -0.02 c-0.02 -0.04 -0.02 -0.06 -0.04 -0.08 l-0.08 0 s0 0.02 -0.02 0.06 z M38.339999999999996 8.52 c0 0 0 -0.02 -0.02 -0.02 l-0.02 0.02 c0 0.04 0.02 0.04 0.04 0 z M36.14 8.84 c0.08 0.04 0.22 -0.08 0.2 -0.18 c0 -0.08 -0.1 -0.12 -0.2 -0.08 c-0.06 0.02 -0.08 0.08 -0.08 0.16 c0.02 0.04 0.04 0.08 0.08 0.1 z M36.8 8.64 c0.02 0.02 0.06 0 0.08 0 l0 -0.04 l-0.08 -0.02 c-0.04 0.02 -0.04 0.06 0 0.06 z M37.94 9.12 c0.02 0 0.06 -0.02 0.08 -0.04 c0.02 -0.06 0.06 -0.12 0.06 -0.16 c0.02 -0.06 0 -0.12 -0.08 -0.14 c-0.04 -0.02 -0.1 0.02 -0.1 0.1 c-0.02 0.02 -0.02 0.06 -0.02 0.08 c0 0.04 0 0.06 0.02 0.1 c0 0.02 0.02 0.06 0.04 0.06 z M37.519999999999996 8.8 c0.02 0.04 0.04 0.04 0.06 0 c0 0 -0.02 0 -0.02 -0.02 c-0.02 0 -0.04 0.02 -0.04 0.02 z M36.8 8.88 c0 -0.04 -0.12 -0.1 -0.14 -0.08 c-0.1 0.08 -0.18 0.14 -0.28 0.18 c-0.04 0.02 -0.08 0.08 -0.1 0.1 c-0.04 0.06 0 0.16 0.06 0.16 s0.14 0 0.16 -0.04 c0.06 -0.12 0.2 -0.14 0.28 -0.24 c0.02 -0.02 0 -0.06 0.02 -0.08 z M35.14 9.02 c0.02 0 0.04 -0.04 0.06 -0.06 c-0.02 -0.08 -0.06 -0.16 -0.14 -0.16 c0 0 -0.04 0.04 -0.04 0.06 c0 0.06 0.06 0.14 0.12 0.16 z M45.239999999999995 8.82 l-0.04 -0.02 l0.04 0 l0 0.02 z M37.56 9.06 l-0.02 0.04 l0.1 0.12 c0.02 -0.02 0.04 -0.04 0.04 -0.06 c0 -0.06 -0.06 -0.12 -0.12 -0.1 z M41.86 9.1 l0.04 0.02 l-0.02 -0.04 z M39.379999999999995 9.16 c-0.02 0.02 -0.04 0.02 -0.04 0.02 c0.02 0.06 0.04 0.06 0.06 0.02 c0 -0.02 -0.02 -0.02 -0.02 -0.04 z M36.06 9.28 c-0.06 -0.04 -0.1 -0.08 -0.14 -0.1 c-0.02 0 -0.04 0.02 -0.04 0.04 c0.02 0.04 0.02 0.08 0.06 0.1 c0 0.02 0.04 0 0.08 0 z M45.12 9.18 c0 0.02 -0.02 0.04 -0.02 0.08 c0 0.02 0.02 0.02 0.04 0.04 c0.02 -0.02 0.04 -0.04 0.04 -0.08 c0 -0.02 -0.04 -0.02 -0.06 -0.04 z M38.9 9.4 c0.06 0.02 0.12 0.02 0.18 0.02 c0 0 0.02 -0.02 0.04 -0.02 c-0.02 -0.02 -0.02 -0.04 -0.02 -0.04 c-0.04 -0.04 -0.1 -0.08 -0.14 -0.1 c-0.06 -0.02 -0.1 0.02 -0.1 0.08 c0 0.02 0.02 0.06 0.04 0.06 z M44.56 9.46 l0.12 -0.06 c0 -0.04 -0.02 -0.04 -0.02 -0.06 c-0.04 -0.04 -0.08 -0.08 -0.12 -0.08 c-0.12 0 -0.22 0.06 -0.3 0.16 c-0.02 0.04 0.02 0.1 0.06 0.1 c0.1 0.04 0.18 -0.02 0.26 -0.06 z M36.76 9.6 c0.12 0.04 0.18 -0.02 0.18 -0.14 c-0.02 -0.08 -0.08 -0.14 -0.16 -0.12 c-0.04 0 -0.1 0.02 -0.12 0.06 c-0.02 0.02 -0.02 0.08 -0.02 0.12 c-0.18 0 -0.3 0.1 -0.42 0.2 c-0.06 0.02 -0.08 0.12 -0.04 0.16 l0.34 0.3 c0.02 0.02 0.08 0 0.08 -0.02 c0.04 -0.12 0.08 -0.24 0.1 -0.36 c0 -0.08 -0.04 -0.18 -0.06 -0.26 z M36.3 9.38 c0 0.02 0.02 0.04 0.02 0.04 c0.04 0 0.06 -0.02 0.08 -0.02 c0 -0.02 -0.02 -0.04 -0.04 -0.06 c-0.02 0.02 -0.04 0.04 -0.06 0.04 z M42.379999999999995 9.54 l0.1 -0.06 l-0.12 -0.12 c-0.02 0.04 -0.04 0.06 -0.04 0.08 c0 0.04 0.04 0.06 0.06 0.1 z M37.32 9.44 c-0.04 0.02 -0.08 0.04 -0.1 0.08 c-0.02 0.06 0.04 0.1 0.08 0.1 s0.1 0 0.14 -0.02 c0.02 0 0.04 -0.04 0.04 -0.06 s0 -0.06 -0.02 -0.08 l-0.1 -0.04 c-0.02 0 -0.04 0 -0.04 0.02 z M38.379999999999995 9.48 c0 0.02 -0.02 0.06 0 0.1 c0.06 0.1 0.14 0.16 0.28 0.14 c0.02 -0.02 0.06 -0.04 0.08 -0.08 c0 -0.04 -0.04 -0.08 -0.06 -0.1 l-0.22 -0.1 c-0.02 0 -0.06 0.02 -0.08 0.04 z M37.92 9.76 c0.04 -0.06 0.06 -0.1 -0.02 -0.16 c-0.04 -0.04 -0.1 -0.08 -0.16 -0.04 c-0.02 0.02 -0.04 0.08 -0.04 0.12 c-0.02 0.04 0 0.1 0 0.14 c-0.12 -0.08 -0.26 -0.12 -0.4 -0.1 c-0.04 0.02 -0.1 0.06 -0.08 0.1 c0.04 0.1 0.06 0.16 0.02 0.26 c-0.04 0.06 0.04 0.14 0.1 0.12 c0.08 -0.04 0.16 -0.08 0.24 -0.14 c0.1 -0.06 0.12 -0.14 0.12 -0.24 c0.08 0 0.16 0 0.22 -0.06 z M44.66 9.6 l0.02 -0.02 l-0.02 -0.02 s-0.02 0 -0.02 0.02 c0 0 0 0.02 0.02 0.02 z M43.9 9.66 c-0.02 0.02 -0.04 0.04 -0.04 0.06 s0.02 0.04 0.04 0.06 c0 -0.02 0.02 -0.04 0.02 -0.08 c0 0 0 -0.02 -0.02 -0.04 z M36.76 9.96 c0 0.02 0.02 0.02 0.02 0.02 c0.02 0.02 0.02 0 0.04 -0.02 c-0.02 0 -0.02 -0.02 -0.04 -0.02 z M37.08 9.98 c0 0 0.02 0 0.02 -0.02 l-0.02 -0.02 c-0.04 0 -0.04 0.02 0 0.04 z M43.82 10.02 c-0.02 0 -0.02 0.04 -0.04 0.04 c0.02 0.02 0.04 0.04 0.06 0.04 s0.04 -0.04 0.06 -0.04 c-0.02 -0.02 -0.04 -0.04 -0.08 -0.04 z M44.739999999999995 10.06 c0.02 0.02 0.04 0.04 0.08 0.04 c0.02 0 0.02 -0.04 0.04 -0.06 c-0.02 0 -0.04 -0.02 -0.08 -0.02 c-0.02 0 -0.02 0.04 -0.04 0.04 z M43.26 10.1 c-0.02 -0.02 0 -0.1 -0.06 -0.04 l0.06 0.04 c0.02 0.04 0.02 0.1 0.02 0.14 c0 0.02 0.02 0.04 0.04 0.02 c0 0 0.02 0 0.02 -0.02 c0.02 -0.08 0 -0.12 -0.08 -0.14 z M35.839999999999996 10.14 l-0.08 -0.02 c-0.02 0 -0.04 0.02 -0.04 0.04 c0.02 0.02 0.04 0.04 0.06 0.04 s0.04 -0.04 0.06 -0.06 z M44.6 10.42 l0 -0.04 c-0.04 -0.1 -0.16 -0.1 -0.24 -0.16 c0 0 -0.06 0.06 -0.08 0.1 c-0.02 0 0 0.06 0.02 0.06 c0.08 0.04 0.18 0.04 0.28 0.08 c0 -0.02 0.02 -0.02 0.02 -0.04 z M37.72 10.72 c0.02 0.04 0.04 0.04 0.06 0.02 c0 -0.02 -0.02 -0.02 -0.04 -0.04 c0 0.02 -0.02 0.02 -0.02 0.02 z M37.22 11.14 c0.04 0 0.06 -0.04 0.12 -0.08 c-0.06 -0.04 -0.1 -0.08 -0.14 -0.08 s-0.08 0.02 -0.06 0.08 c0 0.06 0.02 0.1 0.08 0.08 z M44.339999999999996 11.2 c0.02 0.04 0.04 0.04 0.06 0 c0 0 -0.02 0 -0.02 -0.02 c-0.02 0.02 -0.04 0.02 -0.04 0.02 z M43.12 11.38 c-0.04 0 -0.04 0.02 0 0.04 c0 0 0.02 0 0.02 -0.02 c0 0 0 -0.02 -0.02 -0.02 z M40.4 11.62 c-0.04 0.08 -0.02 0.16 0.04 0.22 c0.02 0.02 0.06 0.04 0.1 0.06 l0.04 -0.1 c0 -0.06 0 -0.12 -0.02 -0.18 c0 -0.02 -0.06 -0.04 -0.1 -0.06 c-0.02 0 -0.06 0.04 -0.06 0.06 z M37.1 12.16 l-0.04 0 l0.02 0.04 z M44.879999999999995 12.26 l-0.02 -0.02 c-0.02 0 -0.04 0.02 -0.04 0.02 c0.02 0.04 0.04 0.04 0.06 0 z M43.1 12.84 l0.06 0.04 c0.06 -0.04 0.12 -0.06 0.2 -0.1 c-0.04 -0.04 -0.06 -0.08 -0.08 -0.08 c-0.1 0 -0.14 0.06 -0.18 0.14 z M35.66 12.8 c0.02 -0.02 -0.02 -0.06 -0.02 -0.08 c-0.02 0.02 -0.04 0.04 -0.04 0.08 c0 0.02 0.02 0.04 0.04 0.06 c0 -0.02 0.02 -0.04 0.02 -0.06 z M44.239999999999995 13.219999999999999 c0.02 0.02 0.02 0.04 0.04 0.04 l0.02 -0.02 c0 -0.02 -0.02 -0.02 -0.02 -0.04 c-0.02 0 -0.02 0.02 -0.04 0.02 z M43.86 13.379999999999999 c-0.02 0 -0.08 0.04 -0.12 0.06 c0.04 0.1 0.06 0.18 0.12 0.26 c0.02 0.02 0.08 0.04 0.12 0.04 c0.02 -0.02 0.06 -0.08 0.06 -0.12 c0 -0.12 -0.06 -0.2 -0.18 -0.24 z M42.92 13.719999999999999 c0.02 0 0.02 -0.02 0.02 -0.02 l-0.2 -0.12 c-0.02 0.04 -0.04 0.06 -0.04 0.08 c0.02 0.1 0.16 0.14 0.22 0.06 z M44.339999999999996 13.64 l0.04 -0.04 c-0.02 0 -0.04 -0.02 -0.08 -0.02 l-0.04 0.04 z M44.86 13.58 c-0.02 0 -0.04 0.02 -0.04 0.02 c0.02 0.06 0.04 0.06 0.06 0.02 c0 -0.02 -0.02 -0.02 -0.02 -0.04 z M36.839999999999996 13.76 c-0.04 0.02 -0.06 0.04 -0.08 0.04 c0.04 0.04 0.08 0.08 0.12 0.14 c0.02 -0.06 0.04 -0.08 0.04 -0.1 c0 -0.06 -0.04 -0.08 -0.08 -0.08 z M41.78 13.82 c0 0 0.02 0 0.02 -0.02 l-0.02 -0.02 l-0.02 0.02 c0 0.02 0 0.02 0.02 0.02 z M38.72 14.48 c0.02 -0.02 0.04 -0.06 0.02 -0.08 c-0.02 -0.08 -0.06 -0.14 -0.1 -0.2 c0 -0.02 -0.02 -0.02 -0.02 -0.04 c-0.02 0 -0.04 0.02 -0.04 0.02 l-0.16 0.16 c-0.02 0.02 0 0.06 0.02 0.08 c0.06 0.04 0.14 0.06 0.2 0.08 c0.02 0.02 0.06 0 0.08 -0.02 z M36.44 14.34 c-0.02 -0.06 -0.06 -0.1 -0.08 -0.16 c-0.04 -0.02 -0.1 0 -0.1 0.04 l0 0.1 c0 0.06 0.02 0.08 0.12 0.04 c0.02 0 0.04 -0.02 0.06 -0.02 z M35.699999999999996 14.379999999999999 c0.06 0.12 0.18 0.18 0.42 0.14 l-0.06 0 c0.02 0 0.04 -0.02 0.08 -0.04 c-0.02 -0.02 -0.02 -0.06 -0.06 -0.08 c-0.08 -0.06 -0.18 -0.12 -0.26 -0.16 c-0.04 0 -0.1 0.02 -0.12 0.04 s-0.02 0.08 0 0.1 z M42.82 14.3 l0.04 0 l-0.02 -0.04 z M36.519999999999996 14.379999999999999 c-0.02 -0.02 -0.04 -0.04 -0.06 -0.04 c0 0.04 0 0.1 0.06 0.04 z M39.12 14.379999999999999 c-0.02 0 -0.02 -0.02 -0.02 -0.02 c-0.02 0 -0.04 0 -0.04 0.02 l0.02 0.02 c0.02 0 0.02 0 0.04 -0.02 z M39.4 14.48 c0 -0.02 0 -0.02 -0.02 -0.04 c-0.04 0.02 -0.04 0.04 0 0.06 z M41.12 14.440000000000001 c-0.06 0.02 -0.06 0.04 -0.02 0.06 c0.02 0 0.02 -0.02 0.04 -0.02 c-0.02 -0.02 -0.02 -0.04 -0.02 -0.04 z M36.62 14.559999999999999 c0 0 -0.02 0 -0.02 -0.02 c-0.02 0 -0.04 0.02 -0.04 0.02 c0.02 0.04 0.04 0.04 0.06 0 z M42.58 14.8 c0.08 0 0.18 -0.06 0.18 -0.14 c-0.02 -0.02 -0.04 -0.06 -0.08 -0.1 l-0.08 0 c-0.04 0.06 -0.08 0.1 -0.1 0.16 c-0.02 0.04 0.04 0.08 0.08 0.08 z M36.14 14.66 l-0.02 -0.02 c-0.04 0.02 -0.04 0.04 0 0.06 c0 0 0.02 -0.02 0.02 -0.04 z M38.86 14.719999999999999 c0.04 -0.02 0.08 -0.02 0.04 -0.08 c-0.02 0.02 -0.04 0.06 -0.04 0.08 z M44.12 14.92 c0.02 -0.04 0 -0.1 0 -0.14 c0 -0.02 -0.02 -0.02 -0.02 -0.04 c-0.1 0.04 -0.2 0.06 -0.3 0.1 c-0.02 0 -0.02 0.02 -0.02 0.02 c0 0.02 0.02 0.02 0.02 0.04 c0.08 0.02 0.16 0.02 0.22 0.06 c0.06 0.02 0.1 0 0.1 -0.04 z M35.56 14.86 c-0.02 -0.02 -0.04 -0.04 -0.06 -0.04 c-0.04 0 -0.06 0.02 -0.08 0.04 c0.02 0 0.04 0.04 0.06 0.04 c0.04 0 0.06 -0.02 0.08 -0.04 z M42.86 14.92 c0.02 -0.02 0 -0.06 -0.02 -0.08 c-0.02 0.02 -0.04 0.04 -0.04 0.06 s0.02 0.04 0.02 0.06 c0.02 0 0.04 -0.02 0.04 -0.04 z M43.239999999999995 15.059999999999999 c0 -0.02 -0.02 -0.04 -0.02 -0.04 c-0.04 0.02 -0.04 0.04 0 0.06 z M39.76 15.120000000000001 l-0.02 0.02 c0 0.02 0 0.04 0.02 0.04 l0.04 -0.04 c-0.02 0 -0.02 -0.02 -0.04 -0.02 z M37.379999999999995 15.24 c-0.02 -0.02 -0.04 -0.02 -0.08 -0.06 c-0.02 0.04 -0.06 0.06 -0.06 0.1 c-0.02 0.02 0 0.04 0.02 0.08 z M39.98 15.280000000000001 l0.08 -0.02 c-0.02 -0.02 -0.02 -0.06 -0.04 -0.06 s-0.06 0.02 -0.08 0.04 c0.02 0 0.02 0.04 0.04 0.04 z M43.28 15.48 c0.06 -0.04 0.16 -0.2 0.14 -0.26 c0 0 -0.02 -0.02 -0.04 -0.02 c-0.12 0.02 -0.2 0.1 -0.2 0.2 c0 0.04 0.04 0.06 0.04 0.08 l0.06 0 z M35.92 15.280000000000001 l0.04 -0.04 c-0.02 0 -0.02 -0.02 -0.04 -0.02 l-0.02 0.02 c0 0.02 0 0.04 0.02 0.04 z M38.68 15.24 c0.08 -0.04 0.06 0.02 0.08 0.06 z M43.98 15.34 l0.04 -0.04 c-0.02 -0.02 -0.02 -0.04 -0.04 -0.08 c0 0.02 -0.04 0.04 -0.04 0.04 c0.02 0.04 0.02 0.06 0.04 0.08 z M44.56 15.26 c0 0 0.02 0 0.02 -0.02 c0 0 0 -0.02 -0.02 -0.02 l-0.02 0.02 c0 0.02 0.02 0.02 0.02 0.02 z M40.58 15.440000000000001 c0.02 -0.04 0.04 -0.08 0.06 -0.1 c-0.02 -0.02 -0.02 -0.04 -0.04 -0.04 c-0.04 0.02 -0.08 0.02 -0.1 0.06 c-0.02 0 0 0.06 0 0.08 l0.08 0 z M39.72 15.4 c-0.02 0 -0.06 0.02 -0.08 0.04 c0.02 0 0.04 0.04 0.08 0.04 c0.02 0 0.04 -0.02 0.06 -0.04 c-0.02 -0.02 -0.04 -0.04 -0.06 -0.04 z M44.76 15.46 l0.02 -0.02 c0 -0.02 -0.02 -0.02 -0.02 -0.04 l-0.04 0.04 s0.02 0.02 0.04 0.02 z M41.16 15.58 c0 0.04 0 0.1 0.06 0.04 l-0.06 -0.04 c-0.04 -0.14 -0.14 -0.1 -0.24 -0.08 l-0.02 0.02 c0 0.02 0.02 0.04 0.02 0.04 c0.08 0 0.16 0.02 0.24 0.02 z M36.56 16.06 c0.06 -0.14 0.16 -0.26 0.32 -0.32 c0.02 0 0.02 -0.02 0.02 -0.02 c0 -0.02 0 -0.04 -0.02 -0.04 c-0.1 -0.1 -0.2 -0.14 -0.34 -0.06 c-0.06 0.04 -0.22 -0.04 -0.2 0.14 c0 0.06 -0.06 0.1 -0.08 0.16 s0.08 0.22 0.16 0.22 c0.06 0.02 0.1 -0.02 0.14 -0.08 z M37.42 16.04 c0.02 -0.2 -0.08 -0.34 -0.24 -0.44 c-0.04 -0.04 -0.14 0 -0.14 0.06 c-0.02 0.14 -0.02 0.28 -0.1 0.4 l-0.02 0 l-0.08 0 c-0.02 0.02 -0.06 0.04 -0.08 0.04 c0.02 0.02 0.02 0.04 0.04 0.04 s0.06 0 0.08 -0.02 c0.02 0 0.04 -0.04 0.04 -0.06 c0.14 0 0.26 0.02 0.38 0.08 c0.04 0.02 0.1 -0.04 0.12 -0.1 z M45.08 15.86 c0.02 -0.14 -0.04 -0.2 -0.16 -0.18 c-0.04 0 -0.08 0.02 -0.08 0.04 c-0.02 0.04 -0.02 0.08 0 0.12 c0 0.02 0.04 0.06 0.06 0.06 c0.04 0.02 0.08 0.06 0.12 0.04 s0.06 -0.06 0.06 -0.08 z M41.1 15.940000000000001 c0 0 0.04 -0.02 0.02 -0.02 c-0.04 -0.1 -0.12 -0.2 -0.24 -0.24 l-0.04 0 c-0.06 0.02 -0.06 0.04 -0.02 0.08 l0.18 0.18 c0.02 0.02 0.06 0 0.1 0 z M35.26 15.74 l0 -0.04 l-0.02 0.02 z M43.2 15.719999999999999 c0 0.04 0.02 0.04 0.04 0 l-0.02 -0.02 z M39.28 16.06 c0.02 -0.04 0.04 -0.08 0.04 -0.1 l-0.1 -0.16 c-0.12 0.02 -0.2 0.04 -0.3 0.08 c-0.02 0 -0.04 0.04 -0.04 0.06 c0.02 0.02 0.04 0.06 0.04 0.08 c0.02 0.12 0.02 0.28 0.18 0.28 c0.12 0 0.14 -0.16 0.18 -0.24 z M39.8 16.06 l0.08 -0.04 c0 -0.04 -0.02 -0.08 -0.04 -0.08 c-0.08 -0.06 -0.18 -0.1 -0.26 -0.14 c-0.02 0 -0.08 0.04 -0.1 0.08 c-0.06 0.04 0 0.08 0.02 0.1 c0.08 0.1 0.16 0.1 0.26 0.08 l0.04 0 z M35.78 15.96 c0.02 -0.02 0.04 -0.04 0.06 -0.04 c-0.02 -0.02 -0.04 -0.04 -0.06 -0.04 s-0.04 0.02 -0.08 0.04 c0.04 0 0.06 0.02 0.08 0.04 z M35.78 16.28 l0 -0.06 c0 -0.14 -0.2 -0.28 -0.34 -0.24 c-0.02 0 -0.04 0.02 -0.04 0.04 c0.04 0.12 0.08 0.26 0.14 0.38 c0.02 0.06 0.18 0.06 0.2 0 c0.02 -0.04 0.04 -0.08 0.04 -0.12 z M40.36 16.34 c0.06 0.02 0.12 -0.04 0.12 -0.12 s-0.04 -0.14 -0.1 -0.2 c0 -0.02 -0.02 -0.02 -0.04 -0.02 c-0.02 0.02 -0.04 0.04 -0.04 0.06 c-0.02 0.02 -0.02 0.06 -0.02 0.08 l0 0.1 c0.02 0.04 0.06 0.08 0.08 0.1 z M35.14 16.34 c0.02 0 0.04 -0.04 0.02 -0.06 c-0.02 -0.06 -0.06 -0.1 -0.12 -0.1 l-0.02 0.08 c0 0.06 0.06 0.1 0.12 0.08 z M36.22 16.5 c0.08 -0.08 0.02 -0.28 -0.1 -0.32 l-0.06 0.06 c-0.02 0.1 0.02 0.18 0.1 0.24 c0.02 0.02 0.06 0.02 0.06 0.02 z M39.379999999999995 16.7 c0 -0.02 0.04 -0.04 0.04 -0.06 s-0.02 -0.06 -0.04 -0.08 c-0.02 0.02 -0.04 0.04 -0.04 0.08 c0 0.02 0.02 0.04 0.04 0.06 z M45.12 16.68 c0 0.04 0.02 0.04 0.04 0 l-0.02 -0.02 z M41 17 c0.02 -0.02 0.02 -0.02 0.04 -0.02 c-0.02 -0.02 -0.02 -0.04 -0.02 -0.04 c-0.02 0 -0.02 0.02 -0.04 0.02 c0.02 0.02 0.02 0.02 0.02 0.04 z M39.66 18.04 c0.02 -0.02 0.04 -0.04 0.04 -0.06 s-0.02 -0.04 -0.04 -0.06 c0 0.02 -0.04 0.04 -0.04 0.06 s0.02 0.04 0.04 0.06 z M40.339999999999996 18.06 l0.02 -0.04 l-0.04 0 z M35.699999999999996 18.4 c0.02 0.04 0.04 0.04 0.06 0.02 c0 -0.02 -0.02 -0.02 -0.02 -0.04 c-0.02 0.02 -0.04 0.02 -0.04 0.02 z M36.879999999999995 18.62 c0 0 0.02 0 0.02 -0.02 c0 0 0 -0.02 -0.02 -0.02 l-0.02 0.02 z M36.199999999999996 19.3 c0.02 0 0.02 -0.02 0.04 -0.02 c-0.02 -0.02 -0.02 -0.02 -0.02 -0.04 l-0.04 0.04 c0.02 0 0.02 0.02 0.02 0.02 z M40.56 19.5 c0.04 0 0.06 -0.02 0.08 -0.02 c-0.02 -0.02 -0.02 -0.06 -0.04 -0.06 s-0.06 0.02 -0.08 0.04 z M37.28 19.78 l0 -0.04 l-0.04 0.02 z M47.519999999999996 6.18 c0 -0.02 0.02 -0.06 0.04 -0.08 c0.04 -0.06 0.1 -0.1 0.1 -0.14 c0.02 -0.06 -0.06 -0.1 -0.1 -0.16 c-0.06 -0.08 -0.04 -0.18 0.04 -0.24 c0.08 -0.04 0.16 -0.04 0.24 -0.08 c0.06 -0.02 0.08 -0.08 0.06 -0.16 c-0.02 -0.02 -0.06 -0.08 -0.1 -0.08 c-0.2 -0.04 -0.4 -0.02 -0.6 0.08 c-0.08 0.04 -0.18 0.06 -0.26 0.1 c-0.04 0.02 -0.08 0.04 -0.08 0.1 l0.06 0.06 c0.04 0.04 0.1 0.06 0.1 0.1 c0.02 0.02 0 0.08 -0.02 0.12 c-0.1 0.16 -0.06 0.3 0 0.46 c0 0.02 0.04 0.04 0.06 0.06 c0.06 0.04 0.08 -0.02 0.1 -0.04 c0.04 -0.02 0.04 -0.06 0.06 -0.08 c0.08 -0.12 0.08 -0.12 0.26 -0.04 c0 0.02 0.02 0.02 0.04 0.02 z M50.12 6.279999999999999 c0 0.12 -0.08 0.24 -0.14 0.34 c-0.02 0.02 -0.06 0.02 -0.08 0.02 s-0.06 -0.04 -0.06 -0.06 c0 -0.14 -0.04 -0.28 -0.1 -0.4 c-0.02 -0.06 0.04 -0.08 0.08 -0.1 l0.1 0 l-0.06 -0.12 c-0.04 -0.06 -0.02 -0.12 0.04 -0.16 c0.06 -0.02 0.12 -0.06 0.04 -0.12 c-0.1 -0.08 -0.22 -0.12 -0.26 -0.26 c-0.02 -0.04 -0.1 -0.1 -0.16 -0.1 l-0.62 0 c-0.04 0 -0.1 0.04 -0.12 0.06 c-0.06 0.16 -0.14 0.12 -0.26 0.06 c-0.06 -0.06 -0.14 -0.04 -0.22 0.02 l-0.14 0.12 l-0.2 0.12 c-0.06 0.04 -0.06 0.12 -0.02 0.18 c0.1 0.1 0.24 0.16 0.38 0.18 c0.04 0.02 0.04 -0.02 0.02 -0.06 c0 -0.02 -0.02 -0.08 0 -0.08 c0.04 -0.02 0.1 -0.04 0.12 0.02 c0.02 0.14 0.14 0.14 0.26 0.14 c0.08 0 0.08 -0.02 0.06 -0.14 c0 -0.08 -0.02 -0.16 0 -0.24 c0.02 -0.06 0.08 -0.12 0.12 -0.18 c0.04 -0.04 0.16 0 0.16 0.06 l0 0.28 c0 0.1 0.08 0.2 0.18 0.2 c0.32 0 0.42 0.16 0.42 0.44 c0 0.06 0.04 0.12 0.06 0.18 c0 0.02 -0.04 0.06 -0.06 0.06 c-0.12 0 -0.24 0.02 -0.36 -0.02 c-0.08 0 -0.12 -0.06 -0.1 -0.18 c0.02 -0.1 -0.04 -0.14 -0.12 -0.12 s-0.16 0.02 -0.24 0.06 c-0.02 0 -0.02 0.04 -0.04 0.06 c-0.06 0.14 -0.06 0.14 -0.14 0.12 c-0.02 -0.02 -0.06 -0.06 -0.04 -0.06 c0.02 -0.06 0.06 -0.12 -0.06 -0.12 s-0.26 0 -0.34 -0.12 c-0.12 -0.16 -0.28 -0.2 -0.46 -0.18 l-0.24 0 c0.04 0.02 0.06 0.08 0.08 0.08 c0.1 0.02 0.2 0 0.28 0.02 c0.08 0 0.14 0.08 0.12 0.16 c-0.02 0.12 -0.08 0.2 -0.2 0.22 c-0.14 0 -0.2 0.06 -0.18 0.2 c0.02 0.06 0 0.12 0 0.18 c0.06 -0.04 0.14 -0.08 0.16 -0.14 c0.06 -0.12 0.12 -0.16 0.22 -0.16 c0.12 0 0.26 0.02 0.38 0.02 c0.02 0 0.04 0.02 0.08 0.04 c-0.02 0.02 -0.02 0.04 -0.04 0.04 c-0.1 0.02 -0.12 0.04 -0.04 0.14 c0.14 0.16 0.14 0.28 0 0.42 c-0.06 0.06 -0.14 0.12 -0.24 0.12 c-0.06 0 -0.12 0.02 -0.14 0.1 l0.08 0 c0.18 0 0.32 0.12 0.3 0.22 c-0.02 0.08 -0.14 0.16 -0.3 0.16 l-0.08 0 l0.06 0.12 c0.04 0.08 -0.04 0.12 -0.08 0.14 c-0.08 0.02 -0.1 -0.04 -0.14 -0.08 c-0.04 -0.06 0 -0.08 0.04 -0.12 l0.12 -0.06 c-0.02 -0.02 -0.02 -0.06 -0.04 -0.08 c-0.06 -0.08 -0.06 -0.14 0 -0.22 c0.02 -0.02 0.04 -0.06 0.04 -0.08 c-0.18 -0.04 -0.18 0.2 -0.34 0.22 l0 0.08 l0.06 0.36 c0.02 0.16 0.14 0.2 0.28 0.14 c0.02 0 0.04 -0.02 0.08 -0.04 c0.14 -0.02 0.28 0.08 0.3 0.24 c0.02 0.08 -0.04 0.14 -0.1 0.2 s-0.1 -0.02 -0.14 -0.06 c-0.08 -0.06 -0.14 -0.12 -0.22 -0.16 c-0.02 -0.02 -0.06 0.02 -0.08 0.04 c-0.06 0.08 -0.02 0.16 0.04 0.26 c0.12 0.14 0.22 0.26 0.3 0.42 c0.06 0.16 0.08 0.34 0.1 0.52 c0.02 0.14 0.06 0.26 0.12 0.4 c0.08 0.2 0.18 0.4 0.26 0.6 c0.02 0.06 0.02 0.14 0.04 0.2 c0.04 0.12 0.04 0.26 0.06 0.4 c0.02 0.12 0.06 0.2 0.18 0.24 c0.1 0.04 0.14 0.14 0.12 0.24 c-0.02 0.22 0.02 0.42 0.14 0.58 c0.14 0.2 0.14 0.42 0.22 0.64 c0.04 0.12 0.02 0.28 0.04 0.42 c0 0.08 -0.02 0.16 0 0.24 c0.1 0.26 0.08 0.52 0.02 0.78 c-0.06 0.24 -0.02 0.5 -0.02 0.76 c0.14 0.22 0.08 0.48 0.06 0.7 c-0.02 0.14 -0.08 0.28 0 0.4 c-0.06 0.12 -0.02 0.22 0 0.32 c-0.12 0.18 -0.08 0.4 -0.08 0.6 l0 1.26 c0 0.08 0.02 0.16 -0.02 0.22 c-0.12 0.26 -0.04 0.54 -0.08 0.8 c0 0.2 0.06 0.3 0.24 0.38 c0.1 0.04 0.2 0.08 0.32 0.08 l2.24 0 c0.2 0 0.38 -0.08 0.56 -0.16 c0.02 0 0.08 -0.06 0.08 -0.1 c-0.04 -0.24 0.12 -0.46 0.12 -0.7 c-0.02 -0.82 0 -1.62 0 -2.44 c0 -0.1 -0.04 -0.18 -0.06 -0.28 c-0.04 -0.08 -0.06 -0.16 0 -0.22 c0.06 -0.1 0.06 -0.22 0.04 -0.32 s-0.04 -0.18 0 -0.28 s0 -0.2 -0.04 -0.32 c-0.08 -0.26 -0.1 -0.54 -0.02 -0.8 c0.06 -0.2 0.06 -0.36 0.02 -0.56 c-0.06 -0.26 -0.08 -0.52 0.02 -0.78 c0.1 -0.22 0.16 -0.44 0.22 -0.68 c0.02 -0.14 0.06 -0.24 0.12 -0.36 c0.1 -0.24 0.24 -0.48 0.36 -0.72 s0.12 -0.52 0.28 -0.76 c0.04 -0.3 0.2 -0.56 0.32 -0.84 s0.24 -0.58 0.38 -0.86 c0.2 -0.34 0.24 -0.72 0.44 -1.04 c0.02 -0.04 0.02 -0.1 0.02 -0.14 c0.18 -0.46 0.3 -0.94 0.52 -1.38 c0.16 -0.28 0.18 -0.6 0.16 -0.92 c-0.02 -0.12 -0.1 -0.22 -0.22 -0.22 l-0.72 0 c-0.18 0 -0.34 0.1 -0.46 0.22 c-0.16 0.16 -0.16 0.18 -0.3 0.04 c-0.06 -0.04 -0.1 -0.08 -0.14 -0.14 c-0.08 -0.08 -0.18 -0.12 -0.3 -0.12 l-0.34 0 c-0.24 0.04 -0.48 0.12 -0.7 0.26 c-0.04 0.02 -0.06 0.06 -0.04 0.12 c0.08 0.1 0.04 0.2 0 0.32 c-0.06 0.12 -0.2 0.24 -0.08 0.4 c0 0 -0.1 0.06 -0.12 0.1 c-0.02 0.1 -0.02 0.22 -0.04 0.34 c0.02 -0.02 0.04 -0.02 0.04 -0.02 c0.06 -0.02 0.1 -0.1 0.16 -0.02 c0.08 0.16 0.12 0.32 0.22 0.46 c0.06 0.1 -0.02 0.16 -0.04 0.24 c0.04 0.02 0.06 0.02 0.08 0.04 s0.02 0.06 0.02 0.1 c0 0 -0.02 0.02 -0.04 0.02 c-0.02 -0.02 -0.04 -0.04 -0.04 -0.06 c-0.02 -0.04 -0.02 -0.06 -0.02 -0.1 c-0.06 0 -0.16 0.02 -0.18 -0.08 c0 -0.1 -0.02 -0.18 -0.1 -0.24 c-0.12 -0.1 -0.1 -0.22 -0.1 -0.34 c-0.1 0.08 -0.16 0.16 -0.12 0.3 c0.02 0.06 0.02 0.12 -0.02 0.18 c-0.04 0.04 -0.1 0.08 -0.12 0.14 l-0.12 0.6 c-0.02 0.08 -0.02 0.16 -0.06 0.22 c-0.08 0.18 -0.16 0.36 -0.2 0.54 c-0.04 0.12 -0.08 0.24 -0.16 0.32 c-0.06 0.08 -0.08 0.2 -0.2 0.2 c-0.14 0 -0.16 -0.14 -0.2 -0.22 c-0.06 -0.12 -0.06 -0.26 -0.1 -0.36 c-0.08 -0.16 -0.14 -0.32 -0.16 -0.5 c0 -0.08 -0.06 -0.08 -0.14 -0.06 c-0.14 0.04 -0.38 -0.02 -0.46 -0.12 c-0.04 -0.02 -0.04 -0.1 -0.02 -0.12 c0 -0.04 0.08 -0.06 0.1 -0.04 c0.08 0.02 0.16 0.06 0.22 0.1 c0.06 0.02 0.12 0.04 0.18 0.04 c0.04 0 0.06 -0.12 0.02 -0.22 c-0.08 -0.12 -0.08 -0.24 -0.08 -0.36 c0.02 -0.18 -0.06 -0.32 -0.14 -0.44 c-0.04 -0.08 -0.12 -0.12 -0.16 -0.18 s-0.06 -0.12 -0.06 -0.18 c-0.02 -0.08 -0.02 -0.18 -0.04 -0.28 c0 -0.02 -0.04 -0.02 -0.06 -0.04 z M54.879999999999995 5.460000000000001 c-0.04 0.06 -0.06 0.14 -0.1 0.2 s-0.16 0.06 -0.22 0.02 c-0.04 -0.04 -0.08 -0.08 -0.1 -0.12 c0 -0.02 0.04 -0.08 0.08 -0.1 c0.06 -0.04 0.14 -0.04 0.22 -0.06 z M53.28 5.52 c0.1 0.04 0.2 0.06 0.32 0.1 c0.02 0 0.04 0.04 0.04 0.06 c0.02 0.06 -0.02 0.1 -0.06 0.1 c-0.04 0.02 -0.06 0.02 -0.1 0.02 c-0.12 0.02 -0.04 0.08 -0.04 0.12 c0.02 0.04 0 0.1 -0.02 0.14 s-0.12 0.02 -0.16 -0.04 c-0.06 -0.04 -0.1 -0.12 -0.06 -0.16 c0.1 -0.1 0 -0.18 0 -0.26 c0 -0.02 0.02 -0.04 0.04 -0.08 l0.04 0 z M49.64 5.84 c-0.02 0.04 -0.04 0.1 -0.08 0.12 c-0.06 0.04 -0.14 0.02 -0.22 -0.02 c-0.08 -0.06 -0.1 -0.16 -0.04 -0.24 l0.06 -0.06 c0.04 -0.04 0.1 -0.08 0.14 -0.1 s0.12 0.12 0.14 0.18 l0 0.12 z M47.28 5.619999999999999 c0 0.02 0.02 0.02 0.02 0.04 c-0.02 0.02 -0.04 0.02 -0.04 -0.02 c0 0 0.02 0 0.02 -0.02 z M52.86 5.66 c-0.02 0.02 -0.04 0.02 -0.08 0.02 l-0.04 -0.04 c0.02 -0.02 0.06 -0.02 0.08 -0.02 s0.02 0.02 0.04 0.04 z M52.68 6.08 c-0.04 0 -0.08 0 -0.1 -0.02 c-0.04 0 -0.04 -0.02 -0.02 -0.06 c0.08 -0.14 0.18 -0.14 0.28 -0.02 c0.02 0.02 0.02 0.04 0.02 0.04 l-0.06 0.06 l-0.12 0 z M55.28 6.039999999999999 c-0.02 0 -0.02 0.02 -0.04 0.02 l-0.02 -0.02 c0.02 -0.02 0.02 -0.02 0.02 -0.04 z M54 6.119999999999999 c0 0.02 -0.02 0.04 -0.04 0.06 l-0.12 0 c-0.02 0 -0.04 -0.02 -0.04 -0.04 l0 -0.02 c0.06 -0.06 0.18 -0.06 0.2 0 z M49.92 6.08 c0.02 0.06 0.04 0.08 0.1 0.1 c-0.02 -0.06 -0.04 -0.1 -0.1 -0.1 z M50.019999999999996 6.18 c0 0.06 0.04 0.1 0.1 0.1 c-0.02 -0.06 -0.04 -0.1 -0.1 -0.1 z M52.68 6.32 c0 0.02 -0.02 0.02 -0.02 0.02 c-0.02 0 -0.02 0 -0.02 -0.02 c0 0 0 -0.02 0.02 -0.02 z M54.32 6.68 c-0.02 0 -0.02 0.02 -0.04 0.04 c-0.02 -0.02 -0.04 -0.06 -0.02 -0.08 c0 -0.02 0.02 -0.02 0.04 -0.04 c0 0.02 0.02 0.04 0.02 0.08 z M53.22 6.66 c0.06 0.06 0.08 0.1 0.12 0.14 c-0.02 0 -0.04 0.04 -0.06 0.04 c-0.06 0.02 -0.08 -0.02 -0.08 -0.08 c-0.02 -0.02 0.02 -0.04 0.02 -0.1 z M48.96 6.859999999999999 c-0.02 -0.04 -0.04 -0.04 -0.08 -0.06 c0.06 -0.04 0.1 -0.08 0.14 -0.1 c0 0.02 0.04 0.06 0.02 0.06 c-0.02 0.04 -0.04 0.06 -0.08 0.1 z M50.06 6.9399999999999995 c0.02 0 0.08 0 0.12 0.04 c0.18 0.1 0.22 0.32 0.28 0.5 c0.02 0.04 -0.12 0.16 -0.16 0.14 c-0.06 -0.04 -0.12 -0.06 -0.18 -0.08 c-0.16 -0.06 -0.2 -0.18 -0.2 -0.34 l0 -0.14 c0 -0.06 0.06 -0.12 0.14 -0.12 z M48.72 7.02 c-0.02 0 -0.02 -0.02 -0.02 -0.02 c0 -0.02 0.02 -0.02 0.02 -0.04 c0.02 0.02 0.02 0.02 0.02 0.04 z M47.58 7.039999999999999 c-0.14 0.04 -0.18 0.1 -0.14 0.2 c0.02 0.06 0.08 0.1 0.18 0.08 c0.02 0 0.06 -0.04 0.04 -0.06 c0 -0.08 -0.02 -0.14 -0.04 -0.22 l-0.04 0 z M49.08 7.5 c-0.06 0.06 -0.08 0.08 -0.12 0.1 c-0.06 0.02 -0.08 -0.02 -0.08 -0.08 c-0.02 -0.06 0.02 -0.08 0.06 -0.08 s0.08 0.04 0.14 0.06 z M49.68 7.4399999999999995 c0.02 0.02 0.02 0.02 0.02 0.04 c-0.02 0.04 -0.04 0.04 -0.04 -0.02 c0 0 0.02 0 0.02 -0.02 z M49.24 7.539999999999999 c0.04 -0.04 0.04 -0.08 0.06 -0.08 c0.04 0 0.12 0.08 0.1 0.12 c0 0.02 -0.06 0.04 -0.08 0.02 c-0.02 0 -0.04 -0.04 -0.08 -0.06 z M49.7 7.66 c0 0.02 -0.02 0.04 -0.02 0.04 c-0.04 -0.02 -0.04 -0.04 0 -0.06 c0.02 0 0.02 0.02 0.02 0.02 z M48.68 8.48 c-0.08 0.02 -0.22 -0.16 -0.2 -0.24 c0.02 -0.04 0.08 -0.1 0.08 -0.16 c0.02 -0.16 0.1 -0.26 0.28 -0.28 c0.02 0 0.06 0 0.08 -0.02 c0.12 -0.1 0.22 -0.04 0.3 0.04 c0.08 0.06 0.12 0.14 0.06 0.24 c-0.04 0.04 -0.02 0.1 -0.04 0.14 s-0.06 0.08 -0.1 0.08 c-0.16 0 -0.3 0.06 -0.42 0.18 c0 0.02 -0.02 0.02 -0.04 0.02 z M53.64 7.84 c-0.02 0.02 -0.04 0.06 -0.06 0.06 s-0.06 -0.02 -0.08 -0.04 c0.02 0 0.04 -0.04 0.06 -0.04 s0.04 0.02 0.08 0.02 z M49.839999999999996 8.02 c-0.06 0.02 -0.08 0.06 -0.12 0.06 c-0.06 0 -0.08 -0.04 -0.08 -0.08 c0.02 -0.06 0.04 -0.1 0.1 -0.08 z M54.22 8.34 c-0.02 0 -0.02 0.02 -0.02 0.02 c-0.02 0 -0.04 -0.02 -0.04 -0.02 c0 -0.02 0.02 -0.02 0.04 -0.02 z M49.04 8.44 c-0.02 0 -0.02 0.02 -0.04 0.02 l-0.02 -0.02 c0 -0.02 0.02 -0.02 0.02 -0.04 z M48.96 8.94 c0.04 0.06 0.08 0.1 0.08 0.12 c0 0.06 -0.04 0.08 -0.1 0.08 c-0.04 0 -0.08 -0.04 -0.06 -0.08 c0 -0.04 0.04 -0.06 0.08 -0.12 z M48.46 9.4 c-0.02 0 -0.02 0.02 -0.04 0.02 l-0.02 -0.02 c0 -0.02 0.02 -0.02 0.04 -0.04 c0 0.02 0 0.02 0.02 0.04 z M49.42 9.54 c-0.02 -0.02 -0.06 -0.06 -0.06 -0.1 c-0.02 -0.02 0.02 -0.04 0.02 -0.08 c0.04 0.06 0.1 0.1 0.14 0.14 c-0.04 0 -0.06 0.02 -0.1 0.04 z M48.88 9.82 c-0.02 -0.02 -0.08 -0.02 -0.08 -0.04 c-0.02 -0.04 -0.02 -0.1 -0.02 -0.16 c0 -0.02 0.04 -0.06 0.06 -0.06 c0.04 0 0.1 0.04 0.1 0.06 c0.04 0.1 0.02 0.18 -0.06 0.2 z M49.32 10.88 c0.08 0.02 0.12 0.04 0.1 0.1 c0 0.06 -0.02 0.08 -0.08 0.08 s-0.1 -0.04 -0.08 -0.1 z M49.519999999999996 11.52 c-0.02 0 -0.02 0.02 -0.04 0.02 c0 -0.02 -0.02 -0.02 -0.02 -0.04 c0 0 0.02 -0.02 0.04 -0.02 c0 0.02 0 0.02 0.02 0.04 z" fill="#111111"></path></g></svg>