<svg xmlns:xlink="http://www.w3.org/1999/xlink" xmlns="http://www.w3.org/2000/svg" viewBox="0 0 369.6666666666667 72.91666666666666" preserveAspectRatio="xMidYMid meet" class="css-grg60t" id="ggffcbff" width="369.6666666666667"  height="72.91666666666666" ><defs id="SvgjsDefs6457"></defs><g id="SvgjsG6458" featurekey="symbolFeature-0" transform="matrix(1.0416666666666665,0,0,1.0416666666666665,-10.416666666666664,-15.624999999999998)" fill="#FE5757"><path xmlns="http://www.w3.org/2000/svg" d="M80,65L80,70C81.378,70,82.5,71.122,82.5,72.5S81.378,75,80,75C76.163,75,72.806,71.705,69.251,68.216C65.136,64.177,60.881,60,55,60C53.232,60,51.512,60.47,50,61.346C48.488,60.47,46.768,60,45,60C39.119,60,34.864,64.177,30.749,68.216C27.194,71.705,23.837,75,20,75C18.622,75,17.5,73.878,17.5,72.5S18.622,70,20,70L20,65C14.486,65,10,69.486,10,75S14.486,85,20,85C27.376,85,40.674,83.771,50,75.892C59.326,83.771,72.624,85,80,85C85.514,85,90,80.514,90,75S85.514,65,80,65Z" fill="#FE5757"></path><path xmlns="http://www.w3.org/2000/svg" d="M27.5,50C37.165,50,45,42.165,45,32.5C45,32.315,44.978,32.135,44.972,31.951C46.304,30.743,48.065,30,50,30S53.696,30.743,55.028,31.951C55.022,32.135,55,32.315,55,32.5C55,42.165,62.835,50,72.5,50S90,42.165,90,32.5S82.165,15,72.5,15C64.92,15,58.484,19.829,56.052,26.571C54.257,25.573,52.195,25,50,25S45.743,25.573,43.948,26.571C41.516,19.829,35.08,15,27.5,15C17.835,15,10,22.835,10,32.5S17.835,50,27.5,50Z" fill="#FE5757"></path></g><g id="SvgjsG6459" featurekey="nameFeature-0" transform="matrix(1.5965089521500122,0,0,1.5965089521500122,97.16859017968308,-3.965089521500122)" fill="#111111"><path d="M20.293 16.934 l-10.742 0 l0 6.4063 l9.2773 0 l0 5.0977 l-9.2773 0 l0 11.563 l-5.8984 0 l0 -28.223 l16.641 0 l0 5.1563 z M41.015625 34.5508 c0 2.4609 0.23438 4.0234 0.48828 4.9023 l0 0.54688 l-5.2539 0 l-0.44922 -2.1875 c-1.5039 1.8164 -4.1016 2.5781 -6.4453 2.5781 c-3.1641 0 -6.25 -1.4063 -6.25 -5.5859 c0 -4.1602 3.1055 -5.5664 7.3047 -6.4844 l3.3008 -0.74219 c1.4258 -0.33203 1.9336 -0.82031 1.9336 -1.6406 c0 -1.9727 -1.7969 -2.5195 -3.3789 -2.5195 c-2.0313 0 -3.5742 0.80078 -3.9258 3.0664 l-4.9805 -0.89844 c0.83984 -4.1602 3.8867 -6.0547 9.2188 -6.0547 c4.0234 0 8.4375 1.1914 8.4375 7.2461 l0 7.7734 z M31.113325 36.582 c2.6758 0 4.8242 -1.7773 4.8242 -5.7617 l-4.7656 1.3477 c-1.5625 0.37109 -2.6953 0.91797 -2.6953 2.2656 c0 1.4453 1.1914 2.1484 2.6367 2.1484 z M59.804218750000004 40 l-6.4648 -8.4375 l-1.1719 0 l0 8.4375 l-5.6836 0 l0 -30 l5.6836 0 l0 17.656 l1.0547 0 l6.3086 -7.7344 l6.3672 0 l-7.9102 9.3164 l8.6523 10.762 l-6.8359 0 z M88.3985625 29.668 l-0.058594 1.3477 l-14.883 0 c0.23438 3.3398 2.4609 4.9414 5.1367 4.9414 c2.0117 0 3.5742 -0.9375 4.3359 -2.7148 l5.1563 0.76172 c-1.3281 4.0625 -4.9414 6.3867 -9.4531 6.3867 c-6.4844 0 -10.723 -3.8281 -10.723 -10.43 s4.3555 -10.469 10.547 -10.469 c5.6836 0 9.9219 3.1445 9.9414 10.176 z M78.4965625 23.477 c-2.5586 0 -4.3359 1.1914 -4.8828 3.8672 l9.2188 0 c-0.29297 -2.5586 -2.0313 -3.8672 -4.3359 -3.8672 z M109.140625 34.5508 c0 2.4609 0.23438 4.0234 0.48828 4.9023 l0 0.54688 l-5.2539 0 l-0.44922 -2.1875 c-1.5039 1.8164 -4.1016 2.5781 -6.4453 2.5781 c-3.1641 0 -6.25 -1.4063 -6.25 -5.5859 c0 -4.1602 3.1055 -5.5664 7.3047 -6.4844 l3.3008 -0.74219 c1.4258 -0.33203 1.9336 -0.82031 1.9336 -1.6406 c0 -1.9727 -1.7969 -2.5195 -3.3789 -2.5195 c-2.0313 0 -3.5742 0.80078 -3.9258 3.0664 l-4.9805 -0.89844 c0.83984 -4.1602 3.8867 -6.0547 9.2188 -6.0547 c4.0234 0 8.4375 1.1914 8.4375 7.2461 l0 7.7734 z M99.238325 36.582 c2.6758 0 4.8242 -1.7773 4.8242 -5.7617 l-4.7656 1.3477 c-1.5625 0.37109 -2.6953 0.91797 -2.6953 2.2656 c0 1.4453 1.1914 2.1484 2.6367 2.1484 z M126.40621875 19.531 c5.2734 0 9.6484 3.9063 9.6484 10.469 s-4.375 10.469 -9.6484 10.469 c-2.7734 0 -5.1953 -1.1133 -6.3281 -3.0859 l-0.13672 2.6172 l-5.332 0 l0 -30 l5.625 0 l0 12.363 c1.1719 -1.8164 3.5156 -2.832 6.1719 -2.832 z M125.09721875 35.8008 c2.9883 0 5.332 -2.207 5.332 -5.8008 c0 -3.6133 -2.3438 -5.8203 -5.332 -5.8203 c-2.9688 0 -5.3125 2.3047 -5.3125 5.8203 s2.3242 5.8008 5.3125 5.8008 z M140.2930125 40 l0 -30 l5.6836 0 l0 30 l-5.6836 0 z M170.68371875 29.668 l-0.058594 1.3477 l-14.883 0 c0.23438 3.3398 2.4609 4.9414 5.1367 4.9414 c2.0117 0 3.5742 -0.9375 4.3359 -2.7148 l5.1563 0.76172 c-1.3281 4.0625 -4.9414 6.3867 -9.4531 6.3867 c-6.4844 0 -10.723 -3.8281 -10.723 -10.43 s4.3555 -10.469 10.547 -10.469 c5.6836 0 9.9219 3.1445 9.9414 10.176 z M160.78171875 23.477 c-2.5586 0 -4.3359 1.1914 -4.8828 3.8672 l9.2188 0 c-0.29297 -2.5586 -2.0313 -3.8672 -4.3359 -3.8672 z" fill="#111111"></path></g></svg>