<svg xmlns:xlink="http://www.w3.org/1999/xlink" xmlns="http://www.w3.org/2000/svg" width="429" height="63.702206137009064" viewBox="0 0 370.1794871794872 54.967948717948715" class="looka-1j8o68f"><defs id="SvgjsDefs7554"></defs><g id="SvgjsG7555" featurekey="symbolFeature-0" transform="matrix(0.7852564102564102,0,0,0.7852564102564102,-7.852564102564102,-11.778846153846153)" fill="#FE5757"><path xmlns="http://www.w3.org/2000/svg" d="M80,65L80,70C81.378,70,82.5,71.122,82.5,72.5S81.378,75,80,75C76.163,75,72.806,71.705,69.251,68.216C65.136,64.177,60.881,60,55,60C53.232,60,51.512,60.47,50,61.346C48.488,60.47,46.768,60,45,60C39.119,60,34.864,64.177,30.749,68.216C27.194,71.705,23.837,75,20,75C18.622,75,17.5,73.878,17.5,72.5S18.622,70,20,70L20,65C14.486,65,10,69.486,10,75S14.486,85,20,85C27.376,85,40.674,83.771,50,75.892C59.326,83.771,72.624,85,80,85C85.514,85,90,80.514,90,75S85.514,65,80,65Z" fill="#FE5757"></path><path xmlns="http://www.w3.org/2000/svg" d="M27.5,50C37.165,50,45,42.165,45,32.5C45,32.315,44.978,32.135,44.972,31.951C46.304,30.743,48.065,30,50,30S53.696,30.743,55.028,31.951C55.022,32.135,55,32.315,55,32.5C55,42.165,62.835,50,72.5,50S90,42.165,90,32.5S82.165,15,72.5,15C64.92,15,58.484,19.829,56.052,26.571C54.257,25.573,52.195,25,50,25S45.743,25.573,43.948,26.571C41.516,19.829,35.08,15,27.5,15C17.835,15,10,22.835,10,32.5S17.835,50,27.5,50Z" fill="#FE5757"></path></g><g id="SvgjsG7556" featurekey="nameFeature-0" transform="matrix(1.7631353055650054,0,0,1.7631353055650054,78.98005155375549,-18.157616940952636)" fill="#111111"><path d="M2.28 15.52 l18.2 0 l0 5.56 l-12.2 0 l0 3.92 l9.8 0 l0 5.56 l-9.8 0 l0 9.44 l-6 0 l0 -24.48 z M36.68 30 c-0.16 -2.92 -1.48 -4.64 -4.52 -4.64 c-0.84 0 -1.56 0.12 -2.16 0.36 c-1.84 0.84 -2.52 2.4 -2.52 4.32 c0 0.64 0.08 1.24 0.28 1.76 c0.6 2.08 2.4 2.84 4.4 2.84 c3.04 0 4.52 -1.64 4.52 -4.64 z M44.28 40 l-6 0 c-0.4 -1 -0.76 -2 -1 -3.04 c-1.36 2.24 -3.44 3.24 -6 3.24 c-5.72 0 -9.8 -4.8 -9.8 -10.28 c0 -6.32 4.72 -10.12 10.68 -10.12 c6.36 0 10.36 4.08 10.52 10.2 c0.04 0.52 0.04 1.12 0.04 1.84 c0 2.8 0.44 5.6 1.56 8.16 z M58.28 20 l6 0 l0 2 c0 3.04 -1.04 5.96 -3.28 8.04 l5.28 9.96 l-7.4 0 l-6.2 -11.84 l0 11.84 l-6 0 l0 -28 l6 0 l0 15.08 l0.92 0 c3.24 0 4.68 -2.16 4.68 -5.12 l0 -1.96 z M72.92 27.6 c0.6 0.2 1.28 0.36 2 0.44 c0.72 0.12 1.4 0.16 2.04 0.16 c0.8 0 2.84 -0.16 2.84 -1.32 c0 -1.24 -1.76 -1.28 -2.64 -1.28 c-1.76 0 -3.28 0.4 -4.24 2 z M84.24 33.76 l0 5.6 c-2.24 0.52 -4.48 0.88 -6.8 0.88 c-6.36 0 -11.08 -3.72 -11.08 -10.16 c0 -6.36 4.56 -10.28 10.6 -10.28 c4.12 0 8.88 1.96 8.88 6.64 c0 4.64 -5.04 6.36 -8.92 6.36 c-1.48 0 -2.96 -0.4 -4.32 -0.96 c0.8 2.24 3.2 2.6 5.28 2.6 c1.08 0 2.16 -0.04 3.24 -0.2 c1 -0.08 2.16 -0.2 3.12 -0.48 z M102.84 30 c-0.16 -2.92 -1.48 -4.64 -4.52 -4.64 c-0.84 0 -1.56 0.12 -2.16 0.36 c-1.84 0.84 -2.52 2.4 -2.52 4.32 c0 0.64 0.08 1.24 0.28 1.76 c0.6 2.08 2.4 2.84 4.4 2.84 c3.04 0 4.52 -1.64 4.52 -4.64 z M110.44 40 l-6 0 c-0.4 -1 -0.76 -2 -1 -3.04 c-1.36 2.24 -3.44 3.24 -6 3.24 c-5.72 0 -9.8 -4.8 -9.8 -10.28 c0 -6.32 4.72 -10.12 10.68 -10.12 c6.36 0 10.36 4.08 10.52 10.2 c0.04 0.52 0.04 1.12 0.04 1.84 c0 2.8 0.44 5.6 1.56 8.16 z M118.84 30 c0 2.96 1.48 4.64 4.48 4.64 c0.84 0 1.6 -0.12 2.2 -0.4 c1.12 -0.44 1.88 -1.28 2.28 -2.44 c0.16 -0.56 0.24 -1.16 0.24 -1.8 s-0.08 -1.24 -0.24 -1.8 c-0.44 -1.24 -1.12 -1.92 -2.28 -2.48 c-0.6 -0.24 -1.36 -0.36 -2.2 -0.36 c-3 0 -4.48 1.68 -4.48 4.64 z M112.84 12 l6 0 l0 10 c1.36 -1.56 3.2 -2.2 5.24 -2.2 c5.84 0 9.96 4.68 9.96 10.28 c0 6.32 -4.68 10.12 -10.64 10.12 c-6.2 0 -10.56 -4.08 -10.56 -10.2 l0 -18 z M136.64000000000001 12 l6 0 l0 28 l-6 0 l0 -28 z M152.24 27.6 c0.6 0.2 1.28 0.36 2 0.44 c0.72 0.12 1.4 0.16 2.04 0.16 c0.8 0 2.84 -0.16 2.84 -1.32 c0 -1.24 -1.76 -1.28 -2.64 -1.28 c-1.76 0 -3.28 0.4 -4.24 2 z M163.56 33.76 l0 5.6 c-2.24 0.52 -4.48 0.88 -6.8 0.88 c-6.36 0 -11.08 -3.72 -11.08 -10.16 c0 -6.36 4.56 -10.28 10.6 -10.28 c4.12 0 8.88 1.96 8.88 6.64 c0 4.64 -5.04 6.36 -8.92 6.36 c-1.48 0 -2.96 -0.4 -4.32 -0.96 c0.8 2.24 3.2 2.6 5.28 2.6 c1.08 0 2.16 -0.04 3.24 -0.2 c1 -0.08 2.16 -0.2 3.12 -0.48 z" fill="#111111"></path></g></svg>